<svg width="50" height="50" viewBox="0 0 50 50" fill="none" xmlns="http://www.w3.org/2000/svg">
<path d="M43.7498 25C43.7498 25.4144 43.5851 25.8118 43.2921 26.1049C42.9991 26.3979 42.6017 26.5625 42.1873 26.5625H11.5837L22.9802 37.957C23.1254 38.1022 23.2406 38.2746 23.3191 38.4642C23.3977 38.6539 23.4381 38.8572 23.4381 39.0625C23.4381 39.2678 23.3977 39.4711 23.3191 39.6608C23.2406 39.8505 23.1254 40.0228 22.9802 40.168C22.8351 40.3132 22.6627 40.4283 22.473 40.5069C22.2834 40.5854 22.0801 40.6259 21.8748 40.6259C21.6695 40.6259 21.4662 40.5854 21.2765 40.5069C21.0868 40.4283 20.9145 40.3132 20.7693 40.168L6.7068 26.1055C6.56152 25.9604 6.44627 25.788 6.36764 25.5984C6.28901 25.4087 6.24854 25.2054 6.24854 25C6.24854 24.7947 6.28901 24.5914 6.36764 24.4017C6.44627 24.212 6.56152 24.0397 6.7068 23.8945L20.7693 9.83205C21.0625 9.53886 21.4601 9.37415 21.8748 9.37415C22.2894 9.37415 22.687 9.53886 22.9802 9.83205C23.2734 10.1252 23.4381 10.5229 23.4381 10.9375C23.4381 11.3521 23.2734 11.7498 22.9802 12.043L11.5837 23.4375H42.1873C42.6017 23.4375 42.9991 23.6021 43.2921 23.8952C43.5851 24.1882 43.7498 24.5856 43.7498 25Z" fill="#8883F0"/>
</svg>
