<svg width="68" height="68" viewBox="0 0 68 68" fill="none" xmlns="http://www.w3.org/2000/svg">
<path d="M65.875 34C65.8883 39.0607 64.2466 43.9868 61.2 48.0277C61.0322 48.2509 60.8221 48.4389 60.5817 48.581C60.3412 48.723 60.0751 48.8163 59.7986 48.8556C59.5221 48.8948 59.2406 48.8791 58.9702 48.8096C58.6997 48.74 58.4456 48.6178 58.2223 48.45C57.9991 48.2822 57.8111 48.0721 57.669 47.8317C57.527 47.5912 57.4337 47.3252 57.3945 47.0487C57.3553 46.7722 57.3709 46.4907 57.4405 46.2202C57.51 45.9497 57.6322 45.6956 57.8 45.4724C60.2938 42.1687 61.6372 38.1393 61.625 34C61.625 28.9278 59.61 24.0632 56.0234 20.4766C52.4368 16.89 47.5723 14.875 42.5 14.875C37.4277 14.875 32.5632 16.89 28.9766 20.4766C25.3899 24.0632 23.375 28.9278 23.375 34C23.375 34.5636 23.1511 35.1041 22.7526 35.5026C22.3541 35.9011 21.8136 36.125 21.25 36.125C20.6864 36.125 20.1459 35.9011 19.7474 35.5026C19.3489 35.1041 19.125 34.5636 19.125 34C19.124 31.8556 19.418 29.7212 19.9989 27.6569C19.7094 27.625 19.4172 27.625 19.125 27.625C15.7435 27.625 12.5005 28.9683 10.1094 31.3594C7.7183 33.7505 6.375 36.9935 6.375 40.375C6.375 43.7565 7.7183 46.9996 10.1094 49.3906C12.5005 51.7817 15.7435 53.125 19.125 53.125H25.5C26.0636 53.125 26.6041 53.3489 27.0026 53.7474C27.4011 54.1459 27.625 54.6864 27.625 55.25C27.625 55.8136 27.4011 56.3541 27.0026 56.7526C26.6041 57.1511 26.0636 57.375 25.5 57.375H19.125C16.788 57.3756 14.4759 56.8942 12.3333 55.9611C10.1906 55.028 8.26336 53.663 6.6719 51.9516C5.08043 50.2402 3.85893 48.219 3.08369 46.0143C2.30844 43.8096 1.9961 41.4687 2.16617 39.1379C2.33624 36.8071 2.98507 34.5363 4.07214 32.4675C5.15921 30.3987 6.66116 28.5762 8.4842 27.1139C10.3072 25.6517 12.4122 24.581 14.6676 23.9687C16.923 23.3565 19.2805 23.2159 21.5927 23.5557C23.9472 18.8465 27.8225 15.0702 32.5909 12.8383C37.3594 10.6064 42.7416 10.0497 47.866 11.2583C52.9903 12.4669 57.5565 15.3701 60.825 19.4976C64.0936 23.6251 65.873 28.7351 65.875 34ZM41.8784 32.4966C41.6811 32.299 41.4467 32.1423 41.1887 32.0353C40.9308 31.9284 40.6543 31.8734 40.375 31.8734C40.0957 31.8734 39.8192 31.9284 39.5613 32.0353C39.3033 32.1423 39.0689 32.299 38.8716 32.4966L30.3716 40.9966C30.1741 41.194 30.0175 41.4284 29.9107 41.6864C29.8038 41.9443 29.7488 42.2208 29.7488 42.5C29.7488 42.7792 29.8038 43.0557 29.9107 43.3137C30.0175 43.5716 30.1741 43.806 30.3716 44.0035C30.7703 44.4022 31.3111 44.6262 31.875 44.6262C32.1542 44.6262 32.4307 44.5712 32.6887 44.4644C32.9466 44.3575 33.181 44.2009 33.3784 44.0035L38.25 39.1292V55.25C38.25 55.8136 38.4739 56.3541 38.8724 56.7526C39.2709 57.1511 39.8114 57.375 40.375 57.375C40.9386 57.375 41.4791 57.1511 41.8776 56.7526C42.2761 56.3541 42.5 55.8136 42.5 55.25V39.1292L47.3716 44.0035C47.569 44.2009 47.8034 44.3575 48.0613 44.4644C48.3193 44.5712 48.5958 44.6262 48.875 44.6262C49.1542 44.6262 49.4307 44.5712 49.6887 44.4644C49.9466 44.3575 50.181 44.2009 50.3784 44.0035C50.5759 43.806 50.7325 43.5716 50.8393 43.3137C50.9462 43.0557 51.0012 42.7792 51.0012 42.5C51.0012 42.2208 50.9462 41.9443 50.8393 41.6864C50.7325 41.4284 50.5759 41.194 50.3784 40.9966L41.8784 32.4966Z" fill="#8883F0"/>
</svg>
