<svg width="389" height="346" viewBox="0 0 389 346" fill="none" xmlns="http://www.w3.org/2000/svg">
<g clip-path="url(#clip0_103_21)">
<path d="M194.275 345.61C301.57 345.61 388.55 284.788 388.55 209.76C388.55 134.732 301.57 73.91 194.275 73.91C86.9799 73.91 0 134.732 0 209.76C0 284.788 86.9799 345.61 194.275 345.61Z" fill="#F5F5F5"/>
<path d="M232.35 263.3L157.05 219.81L243.12 170.12L318.43 213.6L232.35 263.3Z" fill="#E0E0E0"/>
<path d="M27.3098 249.85L124.43 305.92L205.89 258.9L108.77 202.83L27.3098 249.85Z" fill="#E0E0E0"/>
<path d="M314.97 182.67C314.82 180.14 314.48 177.11 314.07 173.59C312.54 160.23 310.45 141.93 315.99 124.4C319.36 113.73 327.48 101.08 340.16 97.5698C342.98 96.7898 349.8 95.6398 352.42 101.69C352.788 102.564 353.008 103.493 353.07 104.44C353.34 108.28 351.61 111.67 349.69 114.76C347.48 118.35 344.92 121.76 342.44 125.08C340.1 128.22 337.67 131.46 335.55 134.82C333.26 138.471 331.254 142.292 329.55 146.25L328.74 145.9C330.441 141.902 332.447 138.04 334.74 134.35C336.87 130.96 339.31 127.7 341.67 124.55C344.13 121.25 346.67 117.85 348.87 114.3C350.71 111.3 352.37 108.09 352.12 104.5C352.066 103.653 351.869 102.822 351.54 102.04C349.2 96.6298 342.92 97.7098 340.33 98.4198C327.99 101.84 320.06 114.22 316.76 124.66C311.28 142.02 313.36 160.21 314.88 173.49C315.28 177.02 315.63 180.07 315.78 182.62L314.97 182.67Z" fill="#8883F0"/>
<path d="M315.87 197.21C315.804 197.219 315.736 197.219 315.67 197.21C315.478 197.172 315.297 197.091 315.143 196.971C314.988 196.851 314.864 196.696 314.78 196.52C314.605 196.025 314.605 195.485 314.78 194.99C314.921 194.032 314.921 193.058 314.78 192.1C314.78 191.56 314.69 190.99 314.69 190.48V184.27C315.488 173.115 318.757 162.276 324.26 152.54C329.14 144.05 334.54 138.4 341.26 134.74C344.883 132.749 348.855 131.476 352.96 130.99C356.584 130.589 360.227 131.552 363.18 133.69C366.23 136.1 367.6 140.23 366.45 143.5C365.64 145.79 363.79 147.5 361.9 149.05C358.53 151.8 354.85 154.26 351.3 156.64C348.35 158.64 345.3 160.64 342.45 162.84C333.731 169.57 326.416 177.944 320.92 187.49C320.02 189.04 319.17 190.64 318.39 192.24L318.07 192.87C317.758 193.441 317.484 194.032 317.25 194.64C317.2 194.77 317.15 195.04 317.08 195.35C317.029 195.92 316.848 196.471 316.55 196.96C316.362 197.125 316.12 197.214 315.87 197.21ZM354.4 131.82C353.95 131.82 353.5 131.82 353.04 131.88C349.056 132.345 345.201 133.581 341.69 135.52C335.13 139.09 329.84 144.64 325.04 152.98C319.611 162.596 316.384 173.296 315.59 184.31V190.46C315.59 190.94 315.59 191.46 315.68 192.01C315.841 193.057 315.841 194.123 315.68 195.17C315.572 195.494 315.572 195.845 315.68 196.17C315.706 196.22 315.742 196.265 315.787 196.299C315.832 196.334 315.884 196.358 315.94 196.37C316.118 196 316.24 195.606 316.3 195.2C316.348 194.922 316.414 194.648 316.5 194.38C316.744 193.738 317.031 193.113 317.36 192.51L317.67 191.89C318.47 190.27 319.33 188.66 320.23 187.09C322.099 183.854 324.173 180.741 326.44 177.77C330.92 171.916 336.148 166.675 341.99 162.18C344.87 159.98 347.93 157.93 350.89 155.95C354.43 153.58 358.08 151.13 361.43 148.41C363.21 146.96 364.96 145.33 365.7 143.25C366.7 140.32 365.47 136.61 362.7 134.42C360.308 132.637 357.381 131.72 354.4 131.82Z" fill="#8883F0"/>
<path d="M315.12 188.67H315.01C314.953 188.657 314.9 188.633 314.853 188.599C314.807 188.565 314.767 188.522 314.737 188.473C314.707 188.423 314.688 188.368 314.68 188.311C314.671 188.254 314.675 188.196 314.69 188.14C322.94 155.24 345.75 140.56 357.93 137.07C358.041 137.039 358.16 137.053 358.261 137.109C358.362 137.165 358.437 137.259 358.47 137.37C358.501 137.482 358.487 137.603 358.431 137.706C358.375 137.808 358.281 137.885 358.17 137.92C346.17 141.35 323.7 155.84 315.55 188.35C315.522 188.442 315.465 188.523 315.388 188.581C315.31 188.638 315.216 188.67 315.12 188.67Z" fill="#8883F0"/>
<path d="M315.07 161.67C314.952 161.66 314.843 161.604 314.767 161.514C314.69 161.424 314.651 161.308 314.66 161.19C317.29 125.66 340.53 106.19 343.17 104.1C343.214 104.062 343.266 104.034 343.322 104.017C343.378 104 343.437 103.995 343.495 104.002C343.553 104.008 343.609 104.026 343.66 104.055C343.71 104.084 343.755 104.123 343.79 104.17C343.826 104.215 343.853 104.267 343.869 104.323C343.885 104.378 343.89 104.437 343.884 104.494C343.877 104.552 343.859 104.608 343.831 104.658C343.803 104.709 343.765 104.754 343.72 104.79C341.11 106.86 318.14 126.1 315.55 161.26C315.537 161.377 315.48 161.484 315.391 161.56C315.302 161.636 315.187 161.676 315.07 161.67Z" fill="#8883F0"/>
<path d="M312.3 37.7598L256.69 5.66982C256.26 5.3611 255.756 5.17166 255.229 5.12073C254.702 5.0698 254.171 5.15919 253.69 5.37983L249.69 7.68982C249.25 7.99602 248.9 8.41444 248.677 8.90157C248.454 9.3887 248.365 9.92675 248.42 10.4598V162.67C248.502 164.153 248.932 165.596 249.675 166.881C250.419 168.167 251.455 169.259 252.7 170.07L308.3 202.12C308.729 202.43 309.233 202.621 309.76 202.674C310.286 202.727 310.818 202.639 311.3 202.42L315.3 200.1C315.734 199.792 316.079 199.374 316.299 198.889C316.519 198.404 316.605 197.869 316.55 197.34V45.1598C316.472 43.6793 316.047 42.2378 315.309 40.9522C314.57 39.6665 313.54 38.5729 312.3 37.7598Z" fill="#263238"/>
<path d="M260.4 165.28L256.4 167.59V180.25C256.42 180.621 256.528 180.981 256.714 181.303C256.899 181.624 257.159 181.897 257.47 182.1L259.34 183.18C259.672 183.348 260.038 183.435 260.41 183.435C260.782 183.435 261.148 183.348 261.48 183.18L263.35 182.1C264.014 181.671 264.528 181.045 264.82 180.31L268.43 169.91L260.4 165.28Z" fill="#263238"/>
<path d="M256.4 180.25C256.42 180.621 256.528 180.981 256.714 181.303C256.899 181.624 257.159 181.897 257.47 182.1L259.34 183.18C259.469 183.258 259.614 183.306 259.765 183.32C259.915 183.334 260.067 183.314 260.208 183.261C260.35 183.208 260.477 183.124 260.581 183.014C260.686 182.905 260.764 182.774 260.81 182.63L264.4 172.22L256.4 167.59V180.25Z" fill="#293439"/>
<path d="M300.52 188.37L296.52 190.69V203.34C296.538 203.711 296.644 204.073 296.828 204.396C297.012 204.719 297.27 204.995 297.58 205.2L299.46 206.28C299.79 206.448 300.155 206.535 300.525 206.535C300.895 206.535 301.26 206.448 301.59 206.28L303.47 205.2C304.134 204.771 304.648 204.145 304.94 203.41L308.54 193L300.52 188.37Z" fill="#263238"/>
<path d="M296.52 203.34C296.538 203.711 296.644 204.073 296.828 204.396C297.012 204.719 297.27 204.995 297.58 205.2L299.46 206.28C299.589 206.358 299.734 206.406 299.885 206.42C300.035 206.434 300.187 206.414 300.328 206.361C300.47 206.308 300.597 206.224 300.702 206.114C300.806 206.005 300.884 205.874 300.93 205.73L304.54 195.32L296.54 190.69L296.52 203.34Z" fill="#293439"/>
<path d="M252.96 8.09979L308.56 40.0998C309.805 40.9123 310.841 42.0065 311.585 43.2938C312.328 44.5811 312.758 46.0254 312.84 47.5098V199.72C312.946 200.254 312.881 200.809 312.656 201.305C312.431 201.801 312.056 202.215 311.584 202.487C311.112 202.759 310.567 202.877 310.024 202.824C309.482 202.771 308.97 202.549 308.56 202.19L252.96 170.13C251.716 169.319 250.682 168.226 249.94 166.941C249.198 165.655 248.77 164.212 248.69 162.73V10.5598C248.583 10.0261 248.646 9.47233 248.871 8.9765C249.095 8.48067 249.47 8.06781 249.941 7.7961C250.413 7.52439 250.958 7.40755 251.499 7.46204C252.041 7.51652 252.552 7.73958 252.96 8.09979Z" fill="#293439"/>
<path d="M172.22 216.15L232.36 250.87L316.56 202.26L312.55 199.94L252.41 165.22L172.22 211.52V216.15Z" fill="#384952"/>
<path d="M232.36 250.87V246.24L316.56 197.63V202.26L232.36 250.87Z" fill="#263238"/>
<path d="M232.74 244.13L232.13 243.72C242.8 227.57 242.73 199.67 241.86 192.67C241.79 192.2 241.74 191.91 241.73 191.8L242.46 191.68C242.46 191.9 242.54 192.16 242.58 192.47C243.36 197.42 247.77 224.31 252.99 232.47L252.37 232.87C248.24 226.46 244.71 209.16 242.94 199.18C243.05 210.51 241.4 231.1 232.74 244.13Z" fill="#FAFAFA"/>
<path d="M267.86 219.47C266.95 219.2 245.69 212.76 243.73 203.38L244.46 203.23C246.32 212.18 267.85 218.7 268.07 218.77L267.86 219.47Z" fill="#FAFAFA"/>
<path d="M246.4 215.67L245.86 213.38C245.786 212.959 245.572 212.576 245.252 212.293C244.932 212.009 244.526 211.843 244.1 211.82C243.748 211.768 243.388 211.826 243.07 211.985C242.752 212.144 242.49 212.397 242.32 212.71L241.63 212.42C241.861 211.962 242.229 211.588 242.682 211.348C243.135 211.108 243.651 211.014 244.16 211.08C244.528 211.103 244.887 211.204 245.212 211.377C245.538 211.549 245.824 211.789 246.05 212.08C246.17 211.132 246.654 210.267 247.4 209.67C247.683 209.522 247.999 209.45 248.318 209.46C248.637 209.471 248.947 209.564 249.22 209.73L248.89 210.39C248.723 210.283 248.532 210.22 248.334 210.208C248.136 210.195 247.939 210.234 247.76 210.32C246.91 210.8 246.58 212.65 246.53 213.32L246.4 215.67Z" fill="#FAFAFA"/>
<path d="M248.49 223.3L247.83 221.22C247.08 218.87 245.83 217.52 244.35 217.43C243.732 217.418 243.123 217.587 242.599 217.915C242.075 218.244 241.659 218.718 241.4 219.28L240.73 218.96C241.046 218.258 241.564 217.665 242.217 217.258C242.871 216.85 243.63 216.645 244.4 216.67C245.29 216.72 246.82 217.2 247.96 219.52C248.21 217.69 248.96 214.75 250.89 213.52C251.583 213.14 252.362 212.945 253.152 212.954C253.941 212.963 254.716 213.175 255.4 213.57L255.09 214.24C254.517 213.901 253.867 213.715 253.202 213.699C252.536 213.683 251.878 213.839 251.29 214.15C248.72 215.75 248.55 221.04 248.55 221.1L248.49 223.3Z" fill="#FAFAFA"/>
<path d="M239.46 228.38L238.8 228.04C240.28 225.19 243.53 223.14 246.35 223.28C246.948 223.287 247.537 223.428 248.074 223.693C248.61 223.957 249.081 224.339 249.45 224.81C249.721 223.371 250.281 222.002 251.096 220.785C251.911 219.568 252.963 218.529 254.19 217.73C255.507 216.855 257.026 216.334 258.602 216.217C260.179 216.1 261.758 216.39 263.19 217.06L262.9 217.73C261.581 217.119 260.129 216.856 258.68 216.964C257.23 217.073 255.833 217.55 254.62 218.35C253.323 219.19 252.241 220.323 251.459 221.656C250.678 222.99 250.219 224.487 250.12 226.03V227.92L249.42 226.16C249.188 225.534 248.771 224.994 248.224 224.612C247.678 224.23 247.027 224.023 246.36 224.02C243.77 223.89 240.82 225.77 239.46 228.38Z" fill="#FAFAFA"/>
<path d="M235.4 239.42L234.75 239.06C235.65 237.42 240.44 229.18 246.11 227.69C246.91 227.46 247.75 227.403 248.574 227.522C249.398 227.641 250.187 227.934 250.89 228.38L250.51 229.01C249.89 228.618 249.195 228.362 248.47 228.256C247.745 228.151 247.005 228.2 246.3 228.4C242.14 229.5 237.84 235.02 235.4 239.42Z" fill="#FAFAFA"/>
<path d="M308.54 151.33V155.96L232.36 199.94L172.22 165.22V160.59L248.4 116.61L308.54 151.33Z" fill="#263238"/>
<path d="M308.54 151.33L232.36 195.31L172.22 160.59L248.4 116.61L308.54 151.33Z" fill="#384952"/>
<path d="M308.54 100.41V105.03L232.36 149.02L172.22 114.29V109.67L248.4 65.6798L308.54 100.41Z" fill="#263238"/>
<path d="M308.54 100.41L232.36 144.39L172.22 109.67L248.4 65.6798L308.54 100.41Z" fill="#384952"/>
<path d="M232.1 83.9999L176.5 51.9499C176.071 51.6395 175.567 51.4483 175.04 51.3956C174.513 51.3429 173.982 51.4307 173.5 51.6499C172.78 52.0599 170.22 53.5499 169.5 53.9599C169.062 54.2673 168.714 54.6862 168.493 55.1733C168.271 55.6603 168.184 56.1977 168.24 56.7299V208.9C168.322 210.383 168.752 211.826 169.495 213.111C170.239 214.397 171.275 215.49 172.52 216.3L228.12 248.36C228.549 248.67 229.053 248.861 229.58 248.914C230.106 248.967 230.638 248.879 231.12 248.66C231.84 248.24 234.42 246.76 235.12 246.33C235.56 246.026 235.911 245.609 236.136 245.124C236.361 244.639 236.452 244.102 236.4 243.57V91.4099C236.318 89.9233 235.885 88.4773 235.138 87.1896C234.391 85.9019 233.35 84.809 232.1 83.9999Z" fill="#263238"/>
<path opacity="0.2" d="M232.36 107.36L236.38 105.04V91.1399L232.35 93.4599L232.36 107.36Z" fill="black"/>
<path opacity="0.2" d="M312.56 61.0599L316.58 58.7499V44.8499L312.55 47.1699L312.56 61.0599Z" fill="black"/>
<path d="M180.24 211.52L176.24 213.83V226.49C176.26 226.861 176.367 227.221 176.553 227.543C176.739 227.864 176.998 228.137 177.31 228.34L179.18 229.42C179.511 229.588 179.878 229.675 180.25 229.675C180.622 229.675 180.988 229.588 181.32 229.42L183.19 228.34C183.852 227.912 184.365 227.291 184.66 226.56L188.27 216.15L180.24 211.52Z" fill="#263238"/>
<path d="M176.23 226.49C176.25 226.861 176.358 227.221 176.544 227.543C176.729 227.864 176.989 228.137 177.3 228.34L179.17 229.42C179.299 229.498 179.444 229.546 179.595 229.56C179.745 229.574 179.897 229.554 180.038 229.501C180.18 229.448 180.307 229.364 180.412 229.254C180.516 229.145 180.594 229.014 180.64 228.87L184.25 218.46L176.25 213.83L176.23 226.49Z" fill="#293439"/>
<path d="M220.33 234.67L216.33 236.98V249.64C216.348 250.01 216.454 250.371 216.638 250.692C216.822 251.014 217.08 251.287 217.39 251.49L219.27 252.57C219.6 252.738 219.965 252.825 220.335 252.825C220.705 252.825 221.07 252.738 221.4 252.57L223.28 251.49C223.939 251.059 224.452 250.439 224.75 249.71L228.35 239.3L220.33 234.67Z" fill="#263238"/>
<path d="M216.33 249.59C216.348 249.96 216.454 250.321 216.638 250.642C216.822 250.964 217.08 251.237 217.39 251.44L219.27 252.52C219.399 252.598 219.544 252.646 219.695 252.66C219.845 252.674 219.997 252.654 220.138 252.601C220.28 252.548 220.407 252.464 220.511 252.355C220.616 252.245 220.694 252.114 220.74 251.97L224.34 241.56L216.34 236.93L216.33 249.59Z" fill="#293439"/>
<path d="M172.48 54.2699L228.09 86.3198C229.334 87.1329 230.368 88.2274 231.11 89.5148C231.852 90.8021 232.28 92.2462 232.36 93.7298V250.87C232.36 250.87 229.27 249.04 228.09 248.36L172.49 216.3C171.245 215.49 170.209 214.397 169.465 213.111C168.722 211.826 168.292 210.383 168.21 208.9V56.7298C168.103 56.1962 168.166 55.6424 168.391 55.1465C168.615 54.6507 168.99 54.2378 169.461 53.9661C169.933 53.6944 170.478 53.5776 171.019 53.6321C171.561 53.6866 172.072 53.9096 172.48 54.2699Z" fill="#293439"/>
<path opacity="0.2" d="M228.09 86.3198L172.48 54.2699C172.072 53.9096 171.561 53.6866 171.019 53.6321C170.478 53.5776 169.933 53.6944 169.461 53.9661C168.99 54.2378 168.615 54.6507 168.391 55.1465C168.166 55.6424 168.103 56.1962 168.21 56.7298V70.3198L232.36 107.32V93.7298C232.28 92.2462 231.852 90.8021 231.11 89.5148C230.368 88.2274 229.334 87.1329 228.09 86.3198Z" fill="black"/>
<path d="M304.53 100.78C304.433 100.777 304.34 100.738 304.271 100.669C304.202 100.6 304.162 100.507 304.16 100.41V54.7498L260.61 79.8898C260.569 79.9163 260.523 79.934 260.475 79.9418C260.427 79.9495 260.378 79.9472 260.331 79.935C260.284 79.9228 260.24 79.9009 260.202 79.8707C260.164 79.8406 260.133 79.8028 260.11 79.7598C260.085 79.7179 260.068 79.6713 260.061 79.6229C260.054 79.5745 260.056 79.5251 260.068 79.4777C260.08 79.4302 260.102 79.3857 260.131 79.3466C260.161 79.3075 260.198 79.2746 260.24 79.2498L304.4 53.7898C304.455 53.7553 304.519 53.7369 304.585 53.7369C304.65 53.7369 304.714 53.7553 304.77 53.7898C304.825 53.8229 304.871 53.8698 304.902 53.9259C304.934 53.9821 304.95 54.0454 304.95 54.1098V100.41C304.95 100.463 304.939 100.516 304.918 100.564C304.896 100.612 304.864 100.656 304.824 100.691C304.785 100.726 304.738 100.752 304.687 100.767C304.636 100.783 304.582 100.787 304.53 100.78Z" fill="#FAFAFA"/>
<path d="M296.51 89.1998H296.4C296.305 89.1783 296.222 89.12 296.169 89.0376C296.117 88.9551 296.099 88.8553 296.12 88.7598L303.58 56.4498L288.78 82.0798C288.757 82.1226 288.726 82.1602 288.688 82.1906C288.65 82.2209 288.607 82.2433 288.56 82.2563C288.513 82.2694 288.464 82.2729 288.416 82.2666C288.368 82.2604 288.322 82.2445 288.28 82.2198C288.237 82.1959 288.199 82.1637 288.169 82.1249C288.138 82.0862 288.116 82.0418 288.103 81.9943C288.09 81.9468 288.086 81.8971 288.093 81.8483C288.099 81.7995 288.115 81.7524 288.14 81.7098L304.14 53.9298C304.186 53.8535 304.257 53.7957 304.341 53.7664C304.425 53.7372 304.517 53.7384 304.6 53.7698C304.682 53.8033 304.749 53.8651 304.79 53.944C304.83 54.0229 304.841 54.1137 304.82 54.1998L296.82 88.9298C296.802 89.0011 296.763 89.0652 296.707 89.1134C296.652 89.1617 296.583 89.1918 296.51 89.1998Z" fill="#FAFAFA"/>
<path d="M280.48 77.6698C280.429 77.6701 280.379 77.6595 280.332 77.6388C280.286 77.6181 280.244 77.5878 280.21 77.5498C280.142 77.4806 280.103 77.3871 280.103 77.2898C280.103 77.1925 280.142 77.0991 280.21 77.0298L304.27 53.8798C304.339 53.8114 304.433 53.7731 304.53 53.7731C304.627 53.7731 304.721 53.8114 304.79 53.8798C304.859 53.9508 304.898 54.0458 304.898 54.1448C304.898 54.2438 304.859 54.3389 304.79 54.4098L280.73 77.5498C280.698 77.5854 280.66 77.6143 280.617 77.6349C280.574 77.6555 280.528 77.6673 280.48 77.6698Z" fill="#FAFAFA"/>
<path d="M304.53 93.3898C304.433 93.3873 304.34 93.3475 304.271 93.2786C304.202 93.2098 304.163 93.1171 304.16 93.0198C304.16 86.9598 297.4 86.5498 297.11 86.5398C297.055 86.5358 297.002 86.5204 296.954 86.4946C296.906 86.4687 296.864 86.433 296.83 86.3898C296.799 86.3473 296.777 86.2983 296.767 86.2465C296.756 86.1946 296.757 86.1411 296.77 86.0898C297.017 84.8518 296.933 83.5707 296.528 82.3753C296.122 81.1798 295.409 80.1122 294.46 79.2798C294.113 78.9338 293.696 78.6656 293.238 78.4932C292.779 78.3208 292.289 78.248 291.8 78.2798C291.539 78.324 291.291 78.4236 291.072 78.572C290.853 78.7203 290.668 78.914 290.53 79.1398C290.488 79.2128 290.423 79.2693 290.345 79.3002C290.267 79.3311 290.18 79.3345 290.1 79.3098C290.02 79.2852 289.951 79.2342 289.904 79.1652C289.856 79.0962 289.834 79.0132 289.84 78.9298C289.84 78.6998 290.25 73.3098 285.51 72.7798C285.449 72.7723 285.391 72.7503 285.34 72.7154C285.29 72.6806 285.249 72.6341 285.22 72.5798C285.193 72.5273 285.179 72.469 285.179 72.4098C285.179 72.3506 285.193 72.2923 285.22 72.2398C285.22 72.2398 287.32 68.3098 286.51 66.3798C286.416 66.1532 286.271 65.9517 286.085 65.7919C285.899 65.6321 285.678 65.5183 285.44 65.4598C285.393 65.4472 285.348 65.4252 285.31 65.3949C285.271 65.3646 285.239 65.3268 285.216 65.2837C285.192 65.2406 285.178 65.1932 285.174 65.1444C285.169 65.0956 285.175 65.0464 285.19 64.9998C285.22 64.9071 285.284 64.8295 285.37 64.7829C285.456 64.7364 285.556 64.7245 285.65 64.7498C285.994 64.8384 286.313 65.0068 286.581 65.2413C286.848 65.4758 287.057 65.7698 287.19 66.0998C287.96 67.9298 286.66 70.9598 286.1 72.0998C289.78 72.8098 290.46 76.2798 290.56 77.9998C290.889 77.7663 291.264 77.606 291.66 77.5298C292.261 77.4716 292.867 77.5502 293.434 77.7597C294 77.9693 294.512 78.3044 294.93 78.7398C295.924 79.616 296.684 80.7253 297.143 81.968C297.602 83.2108 297.745 84.548 297.56 85.8598C299.18 86.0698 304.9 87.1998 304.89 93.0398C304.885 93.1327 304.845 93.2203 304.778 93.2852C304.712 93.3501 304.623 93.3874 304.53 93.3898Z" fill="#FAFAFA"/>
<path d="M304.53 83.4098C304.437 83.4102 304.347 83.3753 304.278 83.3123C304.21 83.2493 304.168 83.1627 304.16 83.0698C304 80.9498 302.77 78.2098 301.22 77.5298C300.913 77.3926 300.572 77.3479 300.24 77.4012C299.908 77.4545 299.599 77.6035 299.35 77.8298C299.289 77.8691 299.218 77.8899 299.145 77.8899C299.072 77.8899 299.001 77.8691 298.94 77.8298C298.877 77.795 298.825 77.7423 298.791 77.6783C298.757 77.6143 298.743 77.5419 298.75 77.4698C298.75 77.4698 299.08 73.7198 297.39 72.1698C297.023 71.8637 296.589 71.6495 296.123 71.5452C295.657 71.4408 295.172 71.4493 294.71 71.5698C294.646 71.5834 294.58 71.5794 294.518 71.5583C294.457 71.5371 294.402 71.4996 294.36 71.4498C294.317 71.3996 294.288 71.339 294.276 71.2741C294.264 71.2092 294.269 71.1423 294.29 71.0798C294.63 70.1498 295.29 67.5398 294.4 66.6098C293.98 66.1798 293.21 66.1398 292.1 66.4998C292.024 66.5249 291.942 66.5248 291.867 66.4996C291.791 66.4744 291.726 66.4253 291.68 66.3598C291.634 66.2956 291.61 66.2187 291.61 66.1398C291.61 66.061 291.634 65.9841 291.68 65.9198C292.3 65.1398 293.83 62.8598 293.45 61.7698C293.387 61.6193 293.286 61.4881 293.156 61.3897C293.026 61.2913 292.872 61.2292 292.71 61.2098C292.663 61.1981 292.618 61.1772 292.579 61.1482C292.54 61.1193 292.507 61.0828 292.481 61.041C292.456 60.9992 292.44 60.9528 292.433 60.9046C292.426 60.8563 292.428 60.8071 292.44 60.7598C292.449 60.7122 292.468 60.6669 292.496 60.627C292.524 60.5871 292.559 60.5534 292.601 60.528C292.642 60.5026 292.688 60.4861 292.736 60.4795C292.784 60.473 292.833 60.4765 292.88 60.4899C293.161 60.5307 293.426 60.6446 293.649 60.8201C293.872 60.9956 294.044 61.2266 294.15 61.4899C294.56 62.6799 293.56 64.4899 292.86 65.4899C293.221 65.4041 293.597 65.4075 293.956 65.4999C294.315 65.5922 294.646 65.7707 294.92 66.0198C296.02 67.1598 295.49 69.5698 295.16 70.6998C295.648 70.6416 296.142 70.6872 296.611 70.8337C297.08 70.9802 297.512 71.2242 297.88 71.5498C299.37 72.9098 299.53 75.5498 299.51 76.7598C299.823 76.6127 300.164 76.5365 300.51 76.5365C300.856 76.5365 301.197 76.6127 301.51 76.7598C303.4 77.5898 304.71 80.5398 304.9 82.9298C304.904 82.9779 304.898 83.0264 304.883 83.0722C304.868 83.1181 304.844 83.1605 304.813 83.1969C304.781 83.2333 304.742 83.2629 304.699 83.284C304.655 83.3052 304.608 83.3173 304.56 83.3198L304.53 83.4098Z" fill="#FAFAFA"/>
<path d="M326.07 37.9098C326.023 37.3789 325.834 36.8702 325.525 36.436C325.216 36.0019 324.796 35.6581 324.31 35.4398L264.7 1.01984C263.375 0.349361 261.91 0 260.425 0C258.94 0 257.475 0.349361 256.15 1.01984L164.47 53.9598C163.984 54.178 163.564 54.5219 163.255 54.956C162.945 55.3902 162.757 55.8989 162.71 56.4298V61.0598C162.757 61.5908 162.945 62.0995 163.255 62.5336C163.564 62.9678 163.984 63.3116 164.47 63.5298L224.08 97.9398C225.404 98.615 226.869 98.967 228.355 98.967C229.841 98.967 231.306 98.615 232.63 97.9398L324.31 45.0098C324.796 44.7916 325.216 44.4478 325.525 44.0136C325.834 43.5795 326.023 43.0708 326.07 42.5398V37.9098Z" fill="#293439"/>
<path d="M224.08 93.3098L164.47 58.8998C162.11 57.5298 162.11 55.3198 164.47 53.9598L256.15 1.01984C257.475 0.349361 258.94 0 260.425 0C261.91 0 263.375 0.349361 264.7 1.01984L324.31 35.4398C326.68 36.8098 326.68 39.0098 324.31 40.3798L232.63 93.3098C231.306 93.985 229.841 94.337 228.355 94.337C226.869 94.337 225.404 93.985 224.08 93.3098Z" fill="#384952"/>
<path opacity="0.1" d="M312.55 51.7898L284.49 86.5198L236.38 114.3L236.37 95.7798L312.55 51.7898Z" fill="black"/>
<path opacity="0.1" d="M308.54 105.03L284.49 137.44L236.38 165.23V146.7L308.54 105.03Z" fill="black"/>
<path opacity="0.1" d="M308.54 155.96L284.49 188.37L236.38 216.16V197.63L308.54 155.96Z" fill="black"/>
<path d="M198.18 257.11L124.42 299.7L41.3601 251.63L115.12 209.05L198.18 257.11Z" fill="#8883F0"/>
<path opacity="0.5" d="M198.18 257.11L124.42 299.7L41.3601 251.63L115.12 209.05L198.18 257.11Z" fill="black"/>
<path d="M115.12 151.32V209.05L41.3601 251.63V193.91L115.12 151.32Z" fill="#8883F0"/>
<path opacity="0.23" d="M115.12 151.32V209.05L41.3601 251.63V193.91L115.12 151.32Z" fill="black"/>
<path d="M124.42 241.97V299.7L41.3601 251.63V193.91L124.42 241.97Z" fill="#8883F0"/>
<path opacity="0.38" d="M124.42 241.97V299.7L41.3601 251.63V193.91L124.42 241.97Z" fill="black"/>
<path d="M198.18 199.38V257.11L115.12 209.05V151.32L198.18 199.38Z" fill="#8883F0"/>
<path opacity="0.4" d="M198.18 199.38V257.11L115.12 209.05V151.32L198.18 199.38Z" fill="black"/>
<path d="M198.18 257.11V199.38L124.42 241.97V299.7L198.18 257.11Z" fill="#8883F0"/>
<path opacity="0.23" d="M198.18 257.11V199.38L124.42 241.97V299.7L198.18 257.11Z" fill="black"/>
<path d="M115.12 151.32L115.22 119.36L198.08 167.48L198.18 199.38L115.12 151.32Z" fill="#8883F0"/>
<path opacity="0.2" d="M115.12 151.32L115.22 119.36L198.08 167.48L198.18 199.38L115.12 151.32Z" fill="black"/>
<path d="M124.42 241.97L131.34 214.01L204.43 171.81L198.18 199.38L124.42 241.97Z" fill="#8883F0"/>
<path opacity="0.3" d="M124.42 241.97L131.34 214.01L204.43 171.81L198.18 199.38L124.42 241.97Z" fill="black"/>
<path d="M41.3601 193.91L32.5601 164.91L106.32 122.33L115.12 151.32L41.3601 193.91Z" fill="#8883F0"/>
<path opacity="0.1" d="M41.3601 193.91L32.5601 164.91L106.32 122.33L115.12 151.32L41.3601 193.91Z" fill="black"/>
<path d="M41.36 193.91L24 169.94L107.07 218L124.42 241.97L41.36 193.91Z" fill="#8883F0"/>
<path opacity="0.45" d="M41.36 193.91L24 169.94L107.07 218L124.42 241.97L41.36 193.91Z" fill="black"/>
<g opacity="0.7">
<path d="M146.14 282.53C146.02 282.53 145.904 282.483 145.818 282.399C145.732 282.314 145.683 282.2 145.68 282.08V271.92C145.682 271.799 145.732 271.683 145.817 271.597C145.903 271.512 146.019 271.462 146.14 271.46C146.26 271.462 146.375 271.512 146.459 271.598C146.543 271.684 146.59 271.799 146.59 271.92V282.08C146.59 282.199 146.543 282.314 146.458 282.398C146.374 282.482 146.259 282.53 146.14 282.53Z" fill="white"/>
<path d="M144.81 275.44C144.75 275.449 144.69 275.449 144.63 275.44C144.521 275.389 144.435 275.299 144.391 275.187C144.346 275.076 144.346 274.951 144.39 274.84L146.01 271.11L147.81 273.19C147.874 273.283 147.902 273.396 147.888 273.509C147.874 273.621 147.819 273.724 147.734 273.798C147.648 273.873 147.538 273.913 147.425 273.911C147.312 273.91 147.203 273.866 147.12 273.79L146.27 272.79L145.27 275.19C145.227 275.272 145.16 275.34 145.078 275.385C144.996 275.429 144.903 275.448 144.81 275.44Z" fill="white"/>
<path d="M150.33 280.14C150.21 280.137 150.095 280.087 150.011 280.001C149.927 279.916 149.88 279.8 149.88 279.68V269.53C149.88 269.41 149.928 269.296 150.012 269.212C150.096 269.127 150.211 269.08 150.33 269.08C150.449 269.08 150.564 269.127 150.648 269.212C150.733 269.296 150.78 269.41 150.78 269.53V279.67C150.781 279.73 150.771 279.79 150.749 279.847C150.727 279.903 150.694 279.954 150.652 279.998C150.611 280.042 150.561 280.077 150.505 280.101C150.45 280.125 150.391 280.138 150.33 280.14Z" fill="white"/>
<path d="M149 273.05C148.94 273.059 148.88 273.059 148.82 273.05C148.765 273.026 148.716 272.991 148.674 272.948C148.633 272.905 148.601 272.854 148.579 272.798C148.558 272.742 148.548 272.683 148.55 272.623C148.551 272.563 148.565 272.504 148.59 272.45L150.2 268.67L152 270.74C152.083 270.825 152.13 270.94 152.13 271.06C152.13 271.179 152.083 271.294 152 271.38C151.958 271.422 151.908 271.456 151.853 271.479C151.799 271.501 151.74 271.513 151.68 271.513C151.621 271.513 151.562 271.501 151.507 271.479C151.452 271.456 151.402 271.422 151.36 271.38L150.51 270.38L149.51 272.78C149.469 272.876 149.395 272.955 149.303 273.005C149.21 273.054 149.103 273.07 149 273.05Z" fill="white"/>
</g>
<g opacity="0.7">
<path d="M134.05 289.42C133.879 289.422 133.71 289.381 133.56 289.3C133.379 289.184 133.233 289.022 133.136 288.83C133.039 288.638 132.996 288.424 133.01 288.21V286.96C133.013 286.839 133.062 286.725 133.148 286.641C133.234 286.557 133.35 286.51 133.47 286.51C133.589 286.51 133.704 286.557 133.788 286.642C133.873 286.726 133.92 286.84 133.92 286.96V288.21C133.92 288.39 133.92 288.49 134.01 288.51C134.1 288.53 134.15 288.51 134.3 288.43C134.581 288.17 134.803 287.852 134.95 287.498C135.097 287.144 135.165 286.763 135.15 286.38V281.18C135.15 281.06 135.197 280.946 135.282 280.862C135.366 280.777 135.481 280.73 135.6 280.73C135.719 280.73 135.834 280.777 135.918 280.862C136.003 280.946 136.05 281.06 136.05 281.18V286.38C136.072 286.92 135.967 287.457 135.743 287.949C135.519 288.441 135.182 288.872 134.76 289.21C134.546 289.342 134.301 289.414 134.05 289.42Z" fill="white"/>
<path d="M129.28 285.23V284.45C129.399 282.447 129.984 280.5 130.99 278.763C131.995 277.027 133.392 275.55 135.07 274.45C136.71 273.51 138.27 273.37 139.47 274.07C140.11 274.509 140.62 275.111 140.948 275.815C141.275 276.519 141.407 277.297 141.33 278.07V278.33L129.28 285.23ZM137.79 274.49C136.989 274.527 136.211 274.767 135.53 275.19C134.092 276.136 132.875 277.38 131.96 278.838C131.046 280.296 130.456 281.934 130.23 283.64L140.4 277.76C140.443 277.181 140.336 276.6 140.089 276.074C139.842 275.549 139.464 275.096 138.99 274.76C138.621 274.566 138.207 274.473 137.79 274.49Z" fill="white"/>
</g>
<path opacity="0.7" d="M24 169.94L107.07 218L124.42 241.97L106.15 218.85L24 169.94Z" fill="white"/>
<path opacity="0.7" d="M198.18 199.38L124.42 241.97V299.7L125.8 243.13L198.18 199.38Z" fill="white"/>
<path d="M89.9401 176.29C97.5501 175.19 104.5 170.29 108.94 164.13C111.011 161.252 112.536 158.018 113.44 154.59C114.4 151.384 114.558 147.991 113.9 144.71C112.53 139.22 107.45 135.97 102.08 135.29C99.3552 134.931 96.5844 135.202 93.9801 136.08C91.2798 137.007 88.937 138.755 87.2801 141.08C86.2413 142.318 85.5877 143.834 85.4001 145.44C85.3841 146.069 85.6059 146.681 86.0211 147.153C86.4363 147.626 87.0144 147.925 87.6401 147.99C89.2503 148.125 90.8595 147.717 92.2101 146.83C93.857 145.906 95.3075 144.67 96.4801 143.19C98.9954 140.086 100.878 136.518 102.02 132.69C102.822 129.405 102.822 125.975 102.02 122.69C101.411 119.253 99.8404 116.06 97.4901 113.48C94.7958 111.03 91.3766 109.524 87.7501 109.19C84.1408 108.694 80.4658 109.036 77.0101 110.19C75.4922 110.65 74.086 111.42 72.8801 112.45C72.0201 113.25 71.0401 114.57 71.3901 115.87C71.7401 117.17 73.6401 117.75 74.9301 117.58C76.8393 117.222 78.5881 116.274 79.9301 114.87C81.4257 113.398 82.696 111.713 83.7001 109.87C84.4461 108.545 84.8355 107.05 84.8301 105.53C84.7001 99.1898 77.6901 95.0898 72.2001 93.9298C70.7181 93.6202 69.2001 93.5192 67.6901 93.6298C67.1801 93.6298 67.4901 94.4698 67.9001 94.4398C70.8544 94.3056 73.7904 94.9688 76.4001 96.3598C78.9749 97.5432 81.1373 99.4689 82.6101 101.89C83.2665 103.083 83.5904 104.431 83.5482 105.793C83.506 107.154 83.0991 108.479 82.3701 109.63C81.3909 111.335 80.1718 112.891 78.7501 114.25C77.5601 115.33 75.7501 116.58 74.0801 116.46C73.8044 116.459 73.5344 116.381 73.301 116.234C73.0676 116.087 72.8802 115.878 72.7601 115.63C72.7097 115.301 72.7368 114.966 72.8393 114.65C72.9417 114.334 73.1167 114.046 73.3501 113.81C74.2332 112.859 75.3253 112.126 76.5401 111.67C79.5402 110.423 82.7887 109.889 86.0301 110.11C89.3706 110.17 92.6192 111.214 95.3701 113.11C97.7665 115.1 99.4685 117.8 100.23 120.82C101.195 123.888 101.495 127.127 101.11 130.32C100.516 133.533 99.2817 136.594 97.4801 139.32C95.6301 142.38 93.3101 145.32 89.8301 146.52C88.9701 146.83 87.1701 147.28 86.8301 146.03C86.4901 144.78 87.4701 143.24 88.1001 142.27C89.4932 140.077 91.5243 138.364 93.9201 137.36C96.232 136.433 98.7277 136.057 101.21 136.26C105.92 136.61 110.7 139.07 112.34 143.75C113.163 146.547 113.252 149.508 112.6 152.35C112.012 155.464 110.892 158.455 109.29 161.19C105.844 167.001 100.625 171.554 94.4001 174.18C92.9201 174.82 91.4001 175.36 89.8501 175.86C89.6901 175.92 89.7601 176.32 89.9401 176.29Z" fill="#E0E0E0"/>
<path d="M58.15 89.4698C54.15 89.1798 48.64 92.3298 50.6 94.6298C52.56 96.9298 57.76 93.2098 57.76 93.2098C57.76 93.2098 57.27 97.8598 58.97 98.3898C60.67 98.9198 62.97 94.4798 61.27 91.6398C62.0899 91.963 62.9781 92.0738 63.8522 91.9619C64.7263 91.85 65.558 91.5191 66.27 90.9998C68.69 89.2198 66.13 87.5398 62.72 87.8398C62.72 87.8398 65.16 79.8398 60.23 81.3698C57.76 82.1198 56.89 85.0098 58.15 89.4698Z" fill="#8883F0"/>
<path opacity="0.65" d="M58.15 89.4698C54.15 89.1798 48.64 92.3298 50.6 94.6298C52.56 96.9298 57.76 93.2098 57.76 93.2098C57.76 93.2098 57.27 97.8598 58.97 98.3898C60.67 98.9198 62.97 94.4798 61.27 91.6398C62.0899 91.963 62.9781 92.0738 63.8522 91.9619C64.7263 91.85 65.558 91.5191 66.27 90.9998C68.69 89.2198 66.13 87.5398 62.72 87.8398C62.72 87.8398 65.16 79.8398 60.23 81.3698C57.76 82.1198 56.89 85.0098 58.15 89.4698Z" fill="white"/>
<path d="M61.8699 91.1697C61.6486 90.953 61.4149 90.7493 61.1699 90.5597C60.8199 90.2897 60.4499 90.0297 60.0999 89.7697C59.7592 89.522 59.4016 89.2981 59.0299 89.0997C58.816 88.981 58.5956 88.8742 58.3699 88.7797C58.0583 88.6334 57.7117 88.5779 57.3699 88.6197C57.2804 88.6223 57.1931 88.6488 57.1173 88.6966C57.0416 88.7444 56.98 88.8117 56.9391 88.8914C56.8982 88.9711 56.8795 89.0604 56.8849 89.1498C56.8904 89.2392 56.9197 89.3255 56.9699 89.3997C57.2448 89.6975 57.588 89.9241 57.9699 90.0597L58.5099 90.3497C58.8799 90.5697 59.2099 90.8197 59.5099 91.0697C59.8099 91.3197 60.2099 91.5597 60.5099 91.8097C61.0258 92.2281 61.6024 92.5653 62.2199 92.8097C62.2476 92.8246 62.2785 92.8324 62.3099 92.8324C62.3413 92.8324 62.3723 92.8246 62.3999 92.8097C62.9099 92.4097 62.1599 91.4597 61.8699 91.1697Z" fill="#384952"/>
</g>
<defs>
<clipPath id="clip0_103_21">
<rect width="389" height="346" fill="white"/>
</clipPath>
</defs>
</svg>
