<svg width="291" height="291" viewBox="0 0 291 291" fill="none" xmlns="http://www.w3.org/2000/svg">
<path d="M145.5 282.183C218.175 282.183 277.09 248.168 277.09 206.208C277.09 164.249 218.175 130.234 145.5 130.234C72.8246 130.234 13.9097 164.249 13.9097 206.208C13.9097 248.168 72.8246 282.183 145.5 282.183Z" fill="#6A6A6A" fill-opacity="0.09"/>
<path d="M184.337 172.621L73.9139 236.502C70.6955 238.364 65.0734 238.131 61.3544 235.984L46.7113 227.562C42.9981 225.42 42.5907 222.173 45.8092 220.31L156.261 156.407C159.48 154.55 165.102 154.783 168.821 156.93L183.435 165.369C187.154 167.511 187.555 170.759 184.337 172.621Z" fill="#D6D6D6"/>
<path d="M223.674 251.826C241.893 251.826 256.662 243.297 256.662 232.777C256.662 222.256 241.893 213.728 223.674 213.728C205.456 213.728 190.687 222.256 190.687 232.777C190.687 243.297 205.456 251.826 223.674 251.826Z" fill="#D6D6D6"/>
<path d="M37.8298 206.831C41.9387 209.2 41.9387 213.041 37.8298 215.41C33.7209 217.779 27.0745 217.779 22.9714 215.41C18.8683 213.041 18.8683 209.2 22.9714 206.831C27.0745 204.462 33.7558 204.462 37.8298 206.831Z" fill="#D6D6D6"/>
<path d="M147.054 228.773L88.2719 262.395C85.6354 263.914 81.0318 263.722 77.9879 261.97L71.0738 257.972C68.0299 256.226 67.6982 253.56 70.3346 252.035L129.146 218.419C131.782 216.894 136.386 217.086 139.43 218.844L146.344 222.836C149.359 224.594 149.69 227.254 147.054 228.773Z" fill="#D6D6D6"/>
<path d="M143.702 242.694L120.113 256.371C117.477 257.89 112.873 257.698 109.829 255.94L102.915 251.948C99.8712 250.202 99.5395 247.536 102.176 246.011L125.764 232.334C128.401 230.815 133.004 231.007 136.048 232.765L142.968 236.758C146.012 238.533 146.338 241.187 143.702 242.694Z" fill="#D6D6D6"/>
<path d="M29.7402 192.153C29.7402 192.153 37.6612 184.413 33.1507 171.451C30.6248 164.188 22.2498 158.886 17.46 158.351C19.0368 160.228 20.2951 162.351 21.1848 164.636L27.191 168.629L21.6678 166.883L22.8318 171.609C22.8318 171.609 27.9709 174.716 28.7275 175.392L23.1927 173.942C23.1927 173.942 23.6524 187.34 29.7402 192.153Z" fill="#8883F0"/>
<path opacity="0.4" d="M29.7402 192.153C29.7402 192.153 37.6612 184.413 33.1507 171.451C30.6248 164.188 22.2498 158.886 17.46 158.351C19.0368 160.228 20.2951 162.351 21.1848 164.636L27.191 168.629L21.6678 166.883L22.8318 171.609C22.8318 171.609 27.9709 174.716 28.7275 175.392L23.1927 173.942C23.1927 173.942 23.6524 187.34 29.7402 192.153Z" fill="black"/>
<path d="M29.7401 192.153C29.7401 192.153 33.8141 175.962 27.7729 166.516C27.7729 166.516 34.885 174.85 29.7401 192.153Z" fill="white"/>
<path d="M20.6727 194.341L30.363 194.225H30.462L40.1581 194.341C40.1581 194.341 40.2687 206.29 36.5904 211.15C35.5719 212.442 33.1915 213.344 30.4154 213.344C27.6393 213.344 25.2472 212.436 24.2346 211.138C20.5621 206.278 20.6727 194.341 20.6727 194.341Z" fill="#37474F"/>
<path d="M20.6665 194.341C20.6665 197.251 25.0315 199.579 30.415 199.579C35.7985 199.579 40.1577 197.251 40.1577 194.341C40.1577 191.431 35.7927 189.103 30.415 189.103C25.0373 189.103 20.6665 191.478 20.6665 194.341Z" fill="#455A64"/>
<path d="M30.415 192.956C27.0627 192.956 24.2225 194.033 23.2215 195.523C22.9788 195.182 22.8431 194.777 22.8315 194.359C22.8315 192.293 26.2246 190.622 30.3975 190.622C34.5705 190.622 37.9635 192.293 37.9635 194.359C37.9516 194.776 37.8181 195.181 37.5794 195.523C36.6075 194.033 33.7557 192.956 30.415 192.956Z" fill="#263238"/>
<path d="M30.4152 198.09C34.3881 198.09 37.6087 196.94 37.6087 195.523C37.6087 194.105 34.3881 192.956 30.4152 192.956C26.4423 192.956 23.2217 194.105 23.2217 195.523C23.2217 196.94 26.4423 198.09 30.4152 198.09Z" fill="#D6D6D6"/>
<path d="M30.2929 196.169C30.2929 196.169 34.0527 196.023 37.2769 191.036C38.6039 188.975 39.2441 187.899 39.2441 187.899L34.0061 187.509L39.8727 186.042L42.6372 181.805L37.7716 181.444C37.7716 181.444 41.3975 180.17 43.9874 180.158C43.9874 180.158 48.4746 172.225 49.8074 171.096C46.4128 171.306 43.0946 172.194 40.0487 173.707C37.0029 175.221 34.2912 177.329 32.0739 179.908C24.6766 188.632 29.1988 196.39 30.2929 196.169Z" fill="#8883F0"/>
<path d="M30.2929 196.169C30.2929 196.169 27.9649 182.021 42.9339 173.512C42.9339 173.512 27.3538 181.002 30.2929 196.169Z" fill="white"/>
<path d="M30.293 196.169C30.293 196.169 26.8941 196.39 23.5185 192.194C22.1275 190.448 21.4466 189.546 21.4466 189.546L26.1026 188.702L20.6726 187.934L17.7625 184.372L22.1217 183.586C22.1217 183.586 18.7287 182.783 16.3948 183.004C16.3948 183.004 11.5992 176.27 10.3071 175.374C13.389 175.244 16.4657 175.732 19.3556 176.811C22.2454 177.889 24.8899 179.536 27.1327 181.654C34.658 188.842 31.3057 196.268 30.293 196.169Z" fill="#8883F0"/>
<path opacity="0.2" d="M30.293 196.169C30.293 196.169 26.8941 196.39 23.5185 192.194C22.1275 190.448 21.4466 189.546 21.4466 189.546L26.1026 188.702L20.6726 187.934L17.7625 184.372L22.1217 183.586C22.1217 183.586 18.7287 182.783 16.3948 183.004C16.3948 183.004 11.5992 176.27 10.3071 175.374C13.389 175.244 16.4657 175.732 19.3556 176.811C22.2454 177.889 24.8899 179.536 27.1327 181.654C34.658 188.842 31.3057 196.268 30.293 196.169Z" fill="black"/>
<path d="M30.2932 196.169C30.2932 196.169 31.0847 183.185 16.7559 176.928C16.7559 176.928 31.4979 182.195 30.2932 196.169Z" fill="white"/>
<path d="M140.844 206.139C140.622 206.138 140.407 206.065 140.231 205.93C140.056 205.794 139.929 205.605 139.872 205.391C139.815 205.177 139.831 204.949 139.916 204.745C140.001 204.54 140.151 204.369 140.344 204.259L182.061 180.35C182.704 179.984 183.24 179.456 183.616 178.82C183.992 178.183 184.196 177.459 184.207 176.719C184.217 175.98 184.034 175.25 183.677 174.603C183.319 173.956 182.798 173.413 182.166 173.029L178.86 171.044C177.097 169.987 175.083 169.421 173.027 169.404C170.971 169.388 168.948 169.922 167.168 170.951L163.542 173.023C162.213 173.711 160.738 174.07 159.241 174.07C157.744 174.07 156.269 173.711 154.94 173.023C153.625 172.266 152.868 171.149 152.868 169.961C152.868 168.774 153.625 167.633 154.94 166.894L161.01 163.402C162.046 162.802 162.906 161.94 163.506 160.904C164.105 159.868 164.423 158.692 164.427 157.495V136.898C164.427 136.631 164.533 136.375 164.722 136.186C164.91 135.997 165.167 135.891 165.434 135.891C165.566 135.89 165.697 135.914 165.82 135.963C165.943 136.013 166.054 136.085 166.149 136.178C166.244 136.27 166.319 136.38 166.371 136.502C166.423 136.624 166.451 136.754 166.452 136.886V157.483C166.447 159.033 166.036 160.555 165.26 161.897C164.484 163.239 163.37 164.354 162.029 165.131L155.959 168.623C155.284 169.013 154.894 169.496 154.894 169.944C154.894 170.392 155.284 170.875 155.959 171.265C156.982 171.773 158.11 172.038 159.253 172.038C160.396 172.038 161.523 171.773 162.547 171.265L166.144 169.187C168.236 167.98 170.612 167.355 173.027 167.375C175.442 167.396 177.808 168.061 179.879 169.304L183.185 171.283C184.119 171.845 184.89 172.641 185.422 173.592C185.955 174.543 186.23 175.617 186.22 176.707C186.211 177.797 185.917 178.866 185.369 179.808C184.82 180.75 184.035 181.533 183.091 182.079L141.368 206.028C141.206 206.111 141.026 206.15 140.844 206.139Z" fill="#8883F0"/>
<path opacity="0.2" d="M140.844 206.139C140.622 206.138 140.407 206.065 140.231 205.93C140.056 205.794 139.929 205.605 139.872 205.391C139.815 205.177 139.831 204.949 139.916 204.745C140.001 204.54 140.151 204.369 140.344 204.259L182.061 180.35C182.704 179.984 183.24 179.456 183.616 178.82C183.992 178.183 184.196 177.459 184.207 176.719C184.217 175.98 184.034 175.25 183.677 174.603C183.319 173.956 182.798 173.413 182.166 173.029L178.86 171.044C177.097 169.987 175.083 169.421 173.027 169.404C170.971 169.388 168.948 169.922 167.168 170.951L163.542 173.023C162.213 173.711 160.738 174.07 159.241 174.07C157.744 174.07 156.269 173.711 154.94 173.023C153.625 172.266 152.868 171.149 152.868 169.961C152.868 168.774 153.625 167.633 154.94 166.894L161.01 163.402C162.046 162.802 162.906 161.94 163.506 160.904C164.105 159.868 164.423 158.692 164.427 157.495V136.898C164.427 136.631 164.533 136.375 164.722 136.186C164.91 135.997 165.167 135.891 165.434 135.891C165.566 135.89 165.697 135.914 165.82 135.963C165.943 136.013 166.054 136.085 166.149 136.178C166.244 136.27 166.319 136.38 166.371 136.502C166.423 136.624 166.451 136.754 166.452 136.886V157.483C166.447 159.033 166.036 160.555 165.26 161.897C164.484 163.239 163.37 164.354 162.029 165.131L155.959 168.623C155.284 169.013 154.894 169.496 154.894 169.944C154.894 170.392 155.284 170.875 155.959 171.265C156.982 171.773 158.11 172.038 159.253 172.038C160.396 172.038 161.523 171.773 162.547 171.265L166.144 169.187C168.236 167.98 170.612 167.355 173.027 167.375C175.442 167.396 177.808 168.061 179.879 169.304L183.185 171.283C184.119 171.845 184.89 172.641 185.422 173.592C185.955 174.543 186.23 175.617 186.22 176.707C186.211 177.797 185.917 178.866 185.369 179.808C184.82 180.75 184.035 181.533 183.091 182.079L141.368 206.028C141.206 206.111 141.026 206.15 140.844 206.139Z" fill="black"/>
<path d="M165.405 145.023C164.743 145.023 164.109 144.761 163.641 144.294C163.173 143.827 162.909 143.193 162.908 142.532V135.548H167.901V142.532C167.9 143.193 167.636 143.827 167.168 144.294C166.7 144.761 166.066 145.023 165.405 145.023Z" fill="#8883F0"/>
<path opacity="0.4" d="M165.405 145.023C164.743 145.023 164.109 144.761 163.641 144.294C163.173 143.827 162.909 143.193 162.908 142.532V135.548H167.901V142.532C167.9 143.193 167.636 143.827 167.168 144.294C166.7 144.761 166.066 145.023 165.405 145.023Z" fill="black"/>
<path d="M151.349 179.797L134 189.691C132.651 190.462 131.124 190.867 129.571 190.867C128.017 190.867 126.491 190.462 125.142 189.691L114.026 183.289L112.757 182.556C111.439 181.794 110.344 180.698 109.583 179.379C108.822 178.061 108.421 176.565 108.421 175.042V143.032L134.442 128.139V160.836C134.443 162.151 134.789 163.443 135.447 164.582C136.105 165.721 137.051 166.667 138.19 167.325L151.355 174.926C151.783 175.173 152.138 175.528 152.384 175.956C152.631 176.384 152.76 176.869 152.76 177.363C152.759 177.857 152.628 178.342 152.381 178.769C152.133 179.197 151.777 179.551 151.349 179.797Z" fill="#263238"/>
<path d="M130.292 190.809C131.599 190.699 132.865 190.301 134 189.645L151.349 179.751C151.777 179.504 152.133 179.149 152.38 178.722C152.627 178.294 152.757 177.809 152.757 177.315C152.757 176.821 152.627 176.336 152.38 175.908C152.133 175.481 151.777 175.126 151.349 174.879L142.357 169.688H130.292V190.809Z" fill="#37474F"/>
<path d="M151.04 172.778L151.523 173.162C151.911 173.473 152.223 173.866 152.438 174.313C152.652 174.761 152.764 175.25 152.763 175.747V177.365H151.017L151.04 172.778Z" fill="#37474F"/>
<path d="M136.455 130.612V160.05C136.456 161.323 136.791 162.573 137.427 163.676C138.064 164.778 138.979 165.693 140.081 166.33L151.04 172.796C151.455 173.034 151.8 173.377 152.039 173.791C152.279 174.205 152.405 174.675 152.405 175.153C152.405 175.631 152.279 176.101 152.039 176.515C151.8 176.929 151.455 177.272 151.04 177.51L149.795 178.22L134.226 187.055C132.922 187.801 131.446 188.194 129.943 188.194C128.44 188.194 126.964 187.801 125.659 187.055L114.875 180.688C113.773 180.051 112.857 179.136 112.221 178.034C111.584 176.931 111.249 175.681 111.249 174.408V144.959L136.455 130.612Z" fill="#455A64"/>
<path d="M136.455 160.05V130.612L111.249 144.959V174.379C111.249 175.652 111.584 176.902 112.221 178.004C112.857 179.107 113.773 180.022 114.875 180.659L139.709 166.079C138.711 165.421 137.892 164.526 137.324 163.473C136.757 162.421 136.458 161.245 136.455 160.05Z" fill="#263238"/>
<path d="M56.6925 196.285L53.8291 197.944V203.182C51.9853 203.185 50.1752 202.688 48.5911 201.744L48.3699 201.611C47.7133 201.22 47.1427 200.701 46.6926 200.083C46.2424 199.466 45.9221 198.764 45.7509 198.02C45.6522 197.699 45.6012 197.366 45.5996 197.03V189.889L56.6925 196.285Z" fill="#263238"/>
<path d="M181.195 3.81791L180.968 3.67823C179.382 2.73749 177.573 2.24092 175.73 2.24069C175.142 2.2364 174.563 2.38909 174.054 2.68301L50.6347 73.6812C49.1161 74.5573 47.8551 75.8178 46.9785 77.3361C46.1019 78.8543 45.6406 80.5766 45.6411 82.3297V189.889L56.6991 196.291L173.978 128.861C175.496 127.984 176.757 126.723 177.633 125.205C178.51 123.687 178.971 121.965 178.971 120.212V8.68343H183.959C183.959 7.70256 183.704 6.73859 183.219 5.88576C182.735 5.03293 182.037 4.32043 181.195 3.81791Z" fill="#37474F"/>
<path d="M46.6706 77.8483C45.9756 79.2401 45.6131 80.7741 45.6113 82.3297V189.889L56.6693 196.291L60.819 193.893V86.6249L46.6706 77.8483Z" fill="#263238"/>
<path d="M50.5991 192.764V199.905C50.5998 200.479 50.7515 201.043 51.0389 201.539C51.3262 202.036 51.7392 202.448 52.2363 202.735C52.7334 203.021 53.2972 203.172 53.871 203.172C54.4448 203.172 55.0085 203.021 55.5054 202.734L178.965 131.73C180.483 130.853 181.744 129.593 182.62 128.075C183.497 126.557 183.958 124.834 183.959 123.081V115.771L50.5991 192.764Z" fill="#37474F"/>
<path d="M183.959 8.39825C183.959 7.82395 183.808 7.2597 183.521 6.76223C183.234 6.26476 182.821 5.85162 182.324 5.56434C181.827 5.27706 181.262 5.12578 180.688 5.1257C180.114 5.12563 179.55 5.27676 179.052 5.56391L55.5927 76.5679C54.0741 77.4439 52.8131 78.7045 51.9365 80.2227C51.0599 81.741 50.5986 83.4633 50.5991 85.2164V192.77L183.959 115.771" fill="#455A64"/>
<path d="M176.806 13.3511H176.777C176.213 13.3463 175.656 13.476 175.153 13.7294L59.1197 80.4324C57.7783 81.2069 56.6644 82.3208 55.89 83.6622C55.1156 85.0036 54.708 86.5252 54.7081 88.0741V179.716C54.7049 180.116 54.7862 180.513 54.9467 180.88C55.1113 181.249 55.3509 181.579 55.6501 181.85C55.9494 182.122 56.3019 182.327 56.6851 182.455C57.0683 182.583 57.4739 182.629 57.876 182.591C58.2781 182.553 58.6679 182.432 59.0207 182.236L175.077 115.51C176.418 114.736 177.531 113.623 178.305 112.282C179.08 110.942 179.488 109.422 179.489 107.874V16.232C179.484 15.503 179.205 14.8025 178.708 14.269C178.212 13.7355 177.533 13.4079 176.806 13.3511Z" fill="#8883F0"/>
<path opacity="0.5" d="M176.806 13.3511H176.777C176.213 13.3463 175.656 13.476 175.153 13.7294L59.1197 80.4324C57.7783 81.2069 56.6644 82.3208 55.89 83.6622C55.1156 85.0036 54.708 86.5252 54.7081 88.0741V179.716C54.7049 180.116 54.7862 180.513 54.9467 180.88C55.1113 181.249 55.3509 181.579 55.6501 181.85C55.9494 182.122 56.3019 182.327 56.6851 182.455C57.0683 182.583 57.4739 182.629 57.876 182.591C58.2781 182.553 58.6679 182.432 59.0207 182.236L175.077 115.51C176.418 114.736 177.531 113.623 178.305 112.282C179.08 110.942 179.488 109.422 179.489 107.874V16.232C179.484 15.503 179.205 14.8025 178.708 14.269C178.212 13.7355 177.533 13.4079 176.806 13.3511Z" fill="white"/>
<path d="M67.0932 82.8302L178.092 18.7404C179.367 18.0013 180.508 18.0595 181.322 18.7404L185.164 21.3943L182.545 24.6361V114.148C182.545 117.43 180.548 121.236 178.092 122.656L68.1873 186.094L67.9836 189.586L63.9096 186.81C63.1007 186.199 62.606 185.006 62.606 183.365V91.3391C62.6409 88.0566 64.6313 84.2503 67.0932 82.8302Z" fill="#8883F0"/>
<path opacity="0.2" d="M67.0932 82.8302L178.092 18.7404C179.367 18.0013 180.508 18.0595 181.322 18.7404L185.164 21.3943L182.545 24.6361V114.148C182.545 117.43 180.548 121.236 178.092 122.656L68.1873 186.094L67.9836 189.586L63.9096 186.81C63.1007 186.199 62.606 185.006 62.606 183.365V91.3391C62.6409 88.0566 64.6313 84.2503 67.0932 82.8302Z" fill="white"/>
<path d="M66.4241 185.984V93.9406C66.4699 92.0802 66.9822 90.2611 67.914 88.6503L63.9506 86.3746C63.129 87.9032 62.6803 89.6042 62.6411 91.3391V183.382C62.6411 185.024 63.1358 186.217 63.9448 186.828L67.6754 189.383C66.9305 188.766 66.4241 187.59 66.4241 185.984Z" fill="#8883F0"/>
<path opacity="0.3" d="M67.9312 189.563L68.0045 189.61C67.9784 189.597 67.9538 189.581 67.9312 189.563Z" fill="#8883F0"/>
<path d="M70.8761 189.354L181.881 125.258C184.343 123.838 186.339 120.02 186.339 116.755V24.7059C186.339 21.4292 184.343 19.9218 181.881 21.3419L70.8761 85.4318C68.4143 86.8518 66.4238 90.6698 66.4238 93.9406V185.984C66.4238 189.266 68.4143 190.774 70.8761 189.354Z" fill="#8883F0"/>
<path d="M70.8761 189.354L181.881 125.258C184.343 123.838 186.339 120.02 186.339 116.755V24.7059C186.339 21.4292 184.343 19.9218 181.881 21.3419L70.8761 85.4318C68.4143 86.8518 66.4238 90.6698 66.4238 93.9406V185.984C66.4238 189.266 68.4143 190.774 70.8761 189.354Z" fill="#8883F0"/>
<path opacity="0.7" d="M70.8761 189.354L181.881 125.258C184.343 123.838 186.339 120.02 186.339 116.755V24.7059C186.339 21.4292 184.343 19.9218 181.881 21.3419L70.8761 85.4318C68.4143 86.8518 66.4238 90.6698 66.4238 93.9406V185.984C66.4238 189.266 68.4143 190.774 70.8761 189.354Z" fill="white"/>
<path d="M70.876 85.4318L181.881 21.3419C184.343 19.9218 186.339 21.4292 186.339 24.7059V29.2048L66.447 98.4628V93.9639C66.4237 90.6581 68.4141 86.8519 70.876 85.4318Z" fill="#8883F0"/>
<path opacity="0.5" d="M70.876 85.4318L181.881 21.3419C184.343 19.9218 186.339 21.4292 186.339 24.7059V29.2048L66.447 98.4628V93.9639C66.4237 90.6581 68.4141 86.8519 70.876 85.4318Z" fill="white"/>
<path d="M183.65 21.2081C185.041 21.2081 185.938 22.5816 185.938 24.7001V116.755C185.938 119.898 184.029 123.559 181.683 124.903L70.6724 189.005C70.2022 189.301 69.6621 189.467 69.1068 189.488C67.7158 189.488 66.8195 188.114 66.8195 185.996V93.9406C66.8195 90.792 68.7285 87.1312 71.074 85.7926L182.085 21.6853C182.555 21.3907 183.095 21.2261 183.65 21.2081ZM183.65 20.8065C183.031 20.8291 182.429 21.0137 181.904 21.3419L70.8761 85.4318C68.4142 86.8519 66.418 90.6698 66.418 93.9406V185.984C66.418 188.428 67.5238 189.889 69.1068 189.889C69.7252 189.864 70.3266 189.679 70.8528 189.354L181.881 125.258C184.343 123.838 186.339 120.02 186.339 116.755V24.7059C186.339 22.2673 185.233 20.8065 183.65 20.8065Z" fill="#8883F0"/>
<path d="M75.8695 88.2312C75.8425 88.8135 75.6775 89.3809 75.3881 89.8869C75.0987 90.3928 74.6932 90.8227 74.205 91.1412C73.2854 91.6708 72.5347 91.2401 72.5347 90.1809C72.5628 89.5983 72.7289 89.0306 73.0193 88.5247C73.3097 88.0188 73.7161 87.5891 74.205 87.2709C75.1246 86.718 75.8695 87.172 75.8695 88.2312Z" fill="white"/>
<path d="M81.748 84.8382C81.7209 85.4204 81.5559 85.9879 81.2665 86.4938C80.9771 86.9998 80.5716 87.4297 80.0834 87.7482C79.1639 88.2778 78.4131 87.8471 78.4131 86.7879C78.4412 86.2052 78.6073 85.6376 78.8977 85.1317C79.1881 84.6257 79.5945 84.196 80.0834 83.8779C81.003 83.3482 81.748 83.808 81.748 84.8382Z" fill="white"/>
<path d="M87.6264 81.4451C87.5993 82.0273 87.4343 82.5948 87.1449 83.1007C86.8555 83.6067 86.45 84.0366 85.9618 84.3551C85.0365 84.8847 84.2915 84.454 84.2915 83.3948C84.3182 82.8118 84.4838 82.2436 84.7743 81.7375C85.0648 81.2314 85.4719 80.8019 85.9618 80.4848C86.8814 79.9552 87.6264 80.3859 87.6264 81.4451Z" fill="white"/>
<path d="M89.5237 158.077C89.4453 158.079 89.368 158.097 89.2967 158.129L73.1404 167.441C72.9525 167.548 72.7964 167.703 72.688 167.891C72.5797 168.078 72.5229 168.29 72.5234 168.506V181.27C72.5233 181.324 72.5352 181.378 72.5584 181.427C72.5808 181.48 72.6146 181.528 72.6574 181.568C72.7002 181.607 72.7511 181.636 72.8064 181.654C72.8617 181.672 72.9202 181.677 72.9779 181.67C73.0356 181.663 73.091 181.644 73.1404 181.613L89.2967 172.301C89.4833 172.194 89.6385 172.04 89.7468 171.854C89.855 171.668 89.9126 171.457 89.9136 171.242V158.479C89.9137 158.374 89.8729 158.274 89.8001 158.199C89.7273 158.124 89.6282 158.08 89.5237 158.077Z" fill="white"/>
<path d="M87.8765 170.829L75.6895 177.865L79.2862 168.495L81.783 171.457L84.3321 167.826L87.8765 170.829Z" fill="#8883F0"/>
<path opacity="0.4" d="M87.8765 170.829L75.6895 177.865L79.2862 168.495L81.783 171.457L84.3321 167.826L87.8765 170.829Z" fill="white"/>
<path d="M83.6451 164.985C83.6249 165.371 83.5137 165.747 83.3205 166.082C83.1273 166.417 82.8576 166.701 82.5335 166.912C81.9224 167.267 81.4219 166.976 81.4219 166.266C81.4434 165.881 81.5553 165.506 81.7484 165.173C81.9415 164.839 82.2105 164.556 82.5335 164.345C83.1504 163.99 83.6451 164.275 83.6451 164.985Z" fill="#8883F0"/>
<path d="M111.203 145.529C111.124 145.527 111.046 145.545 110.976 145.581L94.8196 154.893C94.6317 155.001 94.4757 155.156 94.3673 155.343C94.2589 155.53 94.2021 155.742 94.2027 155.959V168.716C94.2019 168.772 94.2138 168.828 94.2376 168.879C94.26 168.932 94.2938 168.981 94.3366 169.02C94.3795 169.059 94.4303 169.089 94.4856 169.106C94.541 169.124 94.5995 169.129 94.6571 169.122C94.7148 169.115 94.7702 169.096 94.8196 169.065L110.976 159.753C111.163 159.646 111.318 159.492 111.426 159.306C111.534 159.12 111.592 158.909 111.593 158.694V145.931C111.593 145.826 111.552 145.726 111.479 145.651C111.407 145.576 111.307 145.532 111.203 145.529Z" fill="white"/>
<path d="M109.562 158.281L97.3745 165.317L100.971 155.947L103.468 158.909L106.017 155.278L109.562 158.281Z" fill="#8883F0"/>
<path opacity="0.4" d="M109.562 158.281L97.3745 165.317L100.971 155.947L103.468 158.909L106.017 155.278L109.562 158.281Z" fill="white"/>
<path d="M105.003 153.526C105.437 152.775 105.437 151.962 105.003 151.711C104.568 151.461 103.865 151.867 103.431 152.618C102.997 153.37 102.997 154.183 103.431 154.433C103.866 154.684 104.569 154.278 105.003 153.526Z" fill="#8883F0"/>
<path d="M175.997 108.031C175.918 108.029 175.84 108.047 175.77 108.083L159.614 117.395C159.427 117.504 159.273 117.659 159.165 117.846C159.058 118.033 159.002 118.245 159.002 118.46V131.218C159.003 131.273 159.012 131.329 159.032 131.381C159.054 131.434 159.088 131.482 159.131 131.522C159.173 131.561 159.224 131.59 159.28 131.608C159.335 131.626 159.393 131.631 159.451 131.624C159.509 131.617 159.564 131.598 159.614 131.567L175.776 122.255C175.962 122.147 176.117 121.991 176.224 121.804C176.331 121.617 176.387 121.405 176.387 121.19V108.432C176.388 108.38 176.378 108.329 176.359 108.281C176.34 108.232 176.311 108.188 176.275 108.151C176.239 108.114 176.196 108.084 176.148 108.063C176.1 108.043 176.049 108.032 175.997 108.031Z" fill="white"/>
<path d="M174.35 120.782L162.163 127.819L165.766 118.449L168.257 121.411L170.806 117.779L174.35 120.782Z" fill="#8883F0"/>
<path opacity="0.4" d="M174.35 120.782L162.163 127.819L165.766 118.449L168.257 121.411L170.806 117.779L174.35 120.782Z" fill="white"/>
<path d="M170.125 114.939C170.103 115.324 169.991 115.698 169.798 116.032C169.605 116.366 169.336 116.649 169.013 116.86C168.396 117.215 167.901 116.93 167.901 116.22C167.922 115.834 168.033 115.458 168.226 115.123C168.419 114.788 168.689 114.504 169.013 114.293C169.624 113.938 170.125 114.229 170.125 114.939Z" fill="#8883F0"/>
<path d="M132.888 132.981C132.81 132.979 132.732 132.997 132.661 133.034L116.505 142.346C116.317 142.453 116.161 142.608 116.053 142.795C115.944 142.982 115.888 143.194 115.888 143.411V156.168C115.887 156.224 115.899 156.28 115.923 156.331C115.946 156.385 115.979 156.433 116.022 156.472C116.065 156.511 116.116 156.541 116.171 156.558C116.227 156.576 116.285 156.582 116.343 156.575C116.4 156.567 116.456 156.548 116.505 156.517L132.661 147.205C132.849 147.098 133.005 146.943 133.113 146.756C133.221 146.569 133.278 146.356 133.278 146.14V133.383C133.279 133.331 133.27 133.279 133.25 133.231C133.231 133.183 133.203 133.139 133.167 133.101C133.13 133.064 133.087 133.034 133.039 133.014C132.992 132.993 132.94 132.982 132.888 132.981Z" fill="white"/>
<path d="M131.247 145.733L119.06 152.769L122.657 143.399L125.154 146.361L127.703 142.73L131.247 145.733Z" fill="#8883F0"/>
<path opacity="0.4" d="M131.247 145.733L119.06 152.769L122.657 143.399L125.154 146.361L127.703 142.73L131.247 145.733Z" fill="white"/>
<path d="M127.016 139.889C126.996 140.276 126.884 140.651 126.691 140.986C126.498 141.321 126.228 141.605 125.904 141.816C125.293 142.165 124.792 141.88 124.792 141.17C124.814 140.784 124.926 140.409 125.119 140.074C125.312 139.74 125.581 139.455 125.904 139.243C126.521 138.888 127.016 139.179 127.016 139.889Z" fill="#8883F0"/>
<path d="M154.573 120.474C154.495 120.475 154.417 120.493 154.347 120.526L138.19 129.838C138.003 129.946 137.847 130.101 137.739 130.288C137.63 130.475 137.573 130.687 137.573 130.903V143.667C137.573 143.721 137.584 143.775 137.608 143.824C137.631 143.877 137.665 143.925 137.707 143.965C137.75 144.004 137.801 144.034 137.856 144.052C137.911 144.07 137.969 144.076 138.027 144.07C138.084 144.064 138.14 144.045 138.19 144.016L154.347 134.704C154.533 134.595 154.688 134.44 154.796 134.253C154.905 134.067 154.962 133.855 154.963 133.639V120.852C154.956 120.752 154.913 120.658 154.841 120.589C154.769 120.519 154.674 120.478 154.573 120.474Z" fill="white"/>
<path d="M152.932 133.202L140.745 140.239L144.342 130.874L146.839 133.831L149.388 130.205L152.932 133.202Z" fill="#8883F0"/>
<path opacity="0.4" d="M152.932 133.202L140.745 140.239L144.342 130.874L146.839 133.831L149.388 130.205L152.932 133.202Z" fill="white"/>
<path d="M148.701 127.359C148.681 127.745 148.57 128.121 148.377 128.456C148.183 128.791 147.914 129.075 147.59 129.286C146.979 129.641 146.478 129.35 146.478 128.645C146.5 128.26 146.611 127.884 146.804 127.55C146.998 127.215 147.267 126.931 147.59 126.719C148.207 126.364 148.701 126.649 148.701 127.359Z" fill="#8883F0"/>
<path d="M158.304 55.226C158.001 55.2241 157.702 55.2939 157.431 55.4297L95.3898 91.083C94.6744 91.496 94.0801 92.0898 93.6664 92.8048C93.2528 93.5198 93.0342 94.331 93.0327 95.157V144.138C93.0323 144.35 93.0759 144.56 93.1608 144.755C93.2486 144.954 93.3774 145.133 93.5387 145.279C93.7 145.426 93.8903 145.536 94.0971 145.604C94.304 145.672 94.5229 145.696 94.7396 145.674C94.9563 145.652 95.1659 145.585 95.3549 145.477L157.373 109.818C158.089 109.405 158.684 108.812 159.098 108.097C159.512 107.382 159.73 106.57 159.73 105.744V56.7683C159.731 56.3786 159.585 56.003 159.32 55.7169C159.056 55.4308 158.693 55.2554 158.304 55.226Z" fill="white"/>
<path d="M151.978 104.172L105.197 131.183L119.019 95.221L128.587 106.587L138.371 92.6544L151.978 104.172Z" fill="#8883F0"/>
<path opacity="0.4" d="M151.978 104.172L105.197 131.183L119.019 95.221L128.587 106.587L138.371 92.6544L151.978 104.172Z" fill="white"/>
<path d="M135.752 81.7419C135.67 83.2228 135.241 84.6636 134.499 85.9477C133.756 87.2318 132.722 88.3231 131.48 89.1333C129.152 90.4893 127.214 89.3893 127.214 86.6656C127.295 85.1851 127.723 83.7444 128.464 82.4603C129.205 81.1761 130.238 80.0846 131.48 79.2742C133.86 77.9123 135.752 79.0181 135.752 81.7419Z" fill="#8883F0"/>
<path d="M174.886 78.6335C176.865 75.2068 176.864 71.5026 174.885 70.3599C172.906 69.2172 169.697 71.0688 167.719 74.4955C165.741 77.9222 165.741 81.6264 167.72 82.7691C169.7 83.9117 172.908 82.0602 174.886 78.6335Z" fill="white"/>
<path d="M169.251 77.988C169.148 77.9897 169.046 77.9566 168.963 77.8939C168.88 77.8313 168.821 77.7428 168.794 77.6424C168.767 77.5421 168.775 77.4356 168.816 77.3401C168.856 77.2445 168.928 77.1653 169.019 77.115L173.093 74.7404C173.146 74.7094 173.205 74.6893 173.266 74.6812C173.327 74.6732 173.39 74.6774 173.449 74.6937C173.509 74.7099 173.565 74.7379 173.613 74.7759C173.662 74.8139 173.703 74.8612 173.733 74.915C173.794 75.0225 173.811 75.15 173.78 75.2698C173.748 75.3896 173.671 75.4921 173.564 75.5552L169.455 77.924C169.393 77.9597 169.323 77.9816 169.251 77.988Z" fill="#8883F0"/>
<path d="M170.852 79.9261C170.771 79.9261 170.691 79.9061 170.619 79.8678C170.513 79.8047 170.435 79.7022 170.403 79.5824C170.372 79.4626 170.389 79.3351 170.45 79.2277L172.72 75.2933L170.619 74.0828C170.566 74.0518 170.52 74.0107 170.482 73.9618C170.445 73.9129 170.418 73.8571 170.402 73.7976C170.387 73.7382 170.383 73.6762 170.391 73.6153C170.399 73.5544 170.419 73.4957 170.45 73.4426C170.481 73.3895 170.522 73.343 170.571 73.3057C170.62 73.2685 170.676 73.2413 170.736 73.2256C170.795 73.2099 170.857 73.2061 170.918 73.2144C170.979 73.2227 171.037 73.2428 171.091 73.2738L173.593 74.7172C173.699 74.7812 173.776 74.8832 173.809 75.0023C173.826 75.0615 173.831 75.1236 173.823 75.1848C173.815 75.2459 173.794 75.3047 173.762 75.3574L171.259 79.6932C171.218 79.7646 171.159 79.8238 171.087 79.8647C171.016 79.9056 170.934 79.9268 170.852 79.9261Z" fill="#8883F0"/>
<path d="M86.5203 125.625C86.5203 128.855 84.2505 132.783 81.4511 134.401C78.6517 136.019 76.3877 134.704 76.3877 131.491C76.3877 128.279 78.6575 124.333 81.4511 122.721C84.2447 121.108 86.5203 122.395 86.5203 125.625Z" fill="white"/>
<path d="M79.4026 130.467C79.3197 130.467 79.2384 130.444 79.1669 130.402C79.0953 130.36 79.0361 130.3 78.9952 130.228C78.9338 130.122 78.9171 129.995 78.9488 129.876C78.9804 129.757 79.0578 129.656 79.164 129.594L83.2729 127.219C83.3802 127.157 83.5079 127.14 83.6279 127.171C83.748 127.203 83.8506 127.281 83.9131 127.388C83.9756 127.495 83.9929 127.623 83.9613 127.743C83.9296 127.863 83.8516 127.966 83.7443 128.028L79.6354 130.403C79.5642 130.443 79.4842 130.465 79.4026 130.467Z" fill="#8883F0"/>
<path d="M81.8994 131.91C81.8177 131.908 81.7378 131.886 81.6666 131.846L79.164 130.403C79.0584 130.339 78.9814 130.237 78.9487 130.118C78.9313 130.059 78.9264 129.996 78.9344 129.935C78.9424 129.874 78.9631 129.815 78.9952 129.763L81.4978 125.427C81.5596 125.32 81.6614 125.241 81.7809 125.209C81.9004 125.177 82.0278 125.193 82.1351 125.255C82.2424 125.317 82.3208 125.419 82.353 125.538C82.3852 125.658 82.3686 125.785 82.3068 125.892L80.037 129.827L82.138 131.037C82.2447 131.1 82.3221 131.203 82.3537 131.323C82.3853 131.443 82.3685 131.57 82.3068 131.677C82.2647 131.748 82.2051 131.807 82.1337 131.847C82.0623 131.888 81.9816 131.91 81.8994 131.91Z" fill="#8883F0"/>
<path d="M145.337 185.984V224.856C145.337 225.711 144.825 226.52 143.766 227.131L88.5634 258.99C87.6173 259.5 86.5697 259.795 85.4962 259.851C85.4793 259.858 85.4608 259.858 85.4438 259.851V219.501L145.337 185.984Z" fill="#8883F0"/>
<path opacity="0.2" d="M96.5774 228.418V245.47C96.5727 246.079 96.4091 246.675 96.1029 247.201C95.7966 247.727 95.3583 248.163 94.8314 248.467L88.5458 252.093C87.5997 252.604 86.5521 252.898 85.4786 252.955H85.4263V231.636C86.5179 231.584 87.584 231.288 88.5458 230.769L94.5579 227.277C94.7603 227.157 94.9906 227.093 95.2258 227.091C95.4609 227.088 95.6925 227.148 95.8972 227.264C96.1019 227.379 96.2726 227.547 96.392 227.749C96.5114 227.952 96.5753 228.182 96.5774 228.418Z" fill="black"/>
<path d="M85.4961 215.218V259.88H83.8083C82.3 259.785 80.8314 259.358 79.5073 258.629L73.4138 255.137C72.0577 254.357 71.3127 253.391 71.2021 252.419V215.218H85.4961Z" fill="#8883F0"/>
<path opacity="0.3" d="M85.4961 215.218V259.88H83.8083C82.3 259.785 80.8314 259.358 79.5073 258.629L73.4138 255.137C72.0577 254.357 71.3127 253.391 71.2021 252.419V215.218H85.4961Z" fill="black"/>
<path d="M135.891 181.503C133.301 180.478 129.984 180.507 127.964 181.671L85.4785 206.185L72.7501 213.542C71.6967 214.124 71.1787 214.962 71.1787 215.817C71.1787 216.842 71.9295 217.93 73.402 218.774L79.5013 222.324C80.8037 223.043 82.2482 223.466 83.7325 223.564C84.3133 223.615 84.8976 223.615 85.4785 223.564C86.5528 223.508 87.6009 223.211 88.5456 222.697L143.754 190.791C144.813 190.209 145.326 189.377 145.326 188.521V177.236L135.891 181.503Z" fill="#8883F0"/>
<path opacity="0.7" d="M135.891 181.503C133.301 180.478 129.984 180.507 127.964 181.671L85.4785 206.185L72.7501 213.542C71.6967 214.124 71.1787 214.962 71.1787 215.817C71.1787 216.842 71.9295 217.93 73.402 218.774L79.5013 222.324C80.8037 223.043 82.2482 223.466 83.7325 223.564C84.3133 223.615 84.8976 223.615 85.4785 223.564C86.5528 223.508 87.6009 223.211 88.5456 222.697L143.754 190.791C144.813 190.209 145.326 189.377 145.326 188.521V177.236L135.891 181.503Z" fill="white"/>
<path d="M85.496 204.282V223.558H83.75C82.2602 223.464 80.8095 223.043 79.5014 222.324L73.4078 218.803C71.9354 217.959 71.1846 216.871 71.1846 215.846V204.282H85.496Z" fill="#8883F0"/>
<path opacity="0.5" d="M85.496 204.282V223.558H83.75C82.2602 223.464 80.8095 223.043 79.5014 222.324L73.4078 218.803C71.9354 217.959 71.1846 216.871 71.1846 215.846V204.282H85.496Z" fill="white"/>
<path d="M143.754 179.425L88.5457 211.301C86.2177 212.645 82.1437 212.465 79.484 210.929L73.3846 207.407C70.7074 205.859 70.4164 203.514 72.7386 202.169L127.947 170.293C130.275 168.955 134.349 169.129 137.009 170.672L143.102 174.164C145.803 175.764 146.082 178.092 143.754 179.425Z" fill="#8883F0"/>
<path opacity="0.6" d="M143.754 179.425L88.5457 211.301C86.2177 212.645 82.1437 212.465 79.484 210.929L73.3846 207.407C70.7074 205.859 70.4164 203.514 72.7386 202.169L127.947 170.293C130.275 168.955 134.349 169.129 137.009 170.672L143.102 174.164C145.803 175.764 146.082 178.092 143.754 179.425Z" fill="white"/>
<path d="M140.611 203.223L134.96 199.94C131.509 197.828 126.684 198.06 121.335 201.145C110.859 207.198 102.351 221.922 102.351 234.034C102.351 239.592 104.143 243.625 107.094 245.784C107.577 246.141 108.096 246.447 108.642 246.698L113.129 249.335L114.229 247.49C116.743 247.166 119.162 246.326 121.335 245.022C131.811 238.969 140.326 224.245 140.326 212.139C140.362 209.886 140.002 207.644 139.261 205.516L140.611 203.223Z" fill="#8883F0"/>
<path opacity="0.5" d="M140.611 203.223L134.96 199.94C131.509 197.828 126.684 198.06 121.335 201.145C110.859 207.198 102.351 221.922 102.351 234.034C102.351 239.592 104.143 243.625 107.094 245.784C107.577 246.141 108.096 246.447 108.642 246.698L113.129 249.335L114.229 247.49C116.743 247.166 119.162 246.326 121.335 245.022C131.811 238.969 140.326 224.245 140.326 212.139C140.362 209.886 140.002 207.644 139.261 205.516L140.611 203.223Z" fill="black"/>
<path d="M140.024 233.86C147.44 221.017 147.44 207.134 140.024 202.852C132.608 198.571 120.585 205.512 113.17 218.356C105.755 231.2 105.755 245.083 113.17 249.364C120.586 253.645 132.609 246.704 140.024 233.86Z" fill="#8883F0"/>
<path opacity="0.2" d="M140.024 233.86C147.44 221.017 147.44 207.134 140.024 202.852C132.608 198.571 120.585 205.512 113.17 218.356C105.755 231.2 105.755 245.083 113.17 249.364C120.586 253.645 132.609 246.704 140.024 233.86Z" fill="black"/>
<path d="M142.718 210.451L138.132 207.774C135.333 206.057 131.41 206.249 127.074 208.752C118.559 213.67 111.663 225.63 111.663 235.448C111.663 239.959 113.118 243.235 115.51 244.987C115.905 245.275 116.328 245.522 116.773 245.726L120.416 247.868L121.306 246.372C123.345 246.097 125.304 245.403 127.062 244.335C135.571 239.423 142.474 227.457 142.474 217.639C142.501 215.812 142.21 213.994 141.612 212.267L142.718 210.451Z" fill="#8883F0"/>
<path opacity="0.4" d="M142.718 210.451L138.132 207.774C135.333 206.057 131.41 206.249 127.074 208.752C118.559 213.67 111.663 225.63 111.663 235.448C111.663 239.959 113.118 243.235 115.51 244.987C115.905 245.275 116.328 245.522 116.773 245.726L120.416 247.868L121.306 246.372C123.345 246.097 125.304 245.403 127.062 244.335C135.571 239.423 142.474 227.457 142.474 217.639C142.501 215.812 142.21 213.994 141.612 212.267L142.718 210.451Z" fill="black"/>
<path d="M142.239 235.322C148.258 224.898 148.258 213.63 142.24 210.155C136.222 206.681 126.464 212.315 120.445 222.74C114.426 233.164 114.426 244.432 120.444 247.907C126.462 251.381 136.22 245.747 142.239 235.322Z" fill="#8883F0"/>
<path opacity="0.6" d="M138.111 232.939C141.849 226.464 141.849 219.466 138.111 217.307C134.372 215.149 128.311 218.648 124.573 225.123C120.835 231.598 120.835 238.596 124.573 240.755C128.312 242.913 134.373 239.414 138.111 232.939Z" fill="black"/>
<path d="M130.636 218.425C125.916 221.55 122.151 228.063 121.807 233.714C122.925 235.285 125.002 235.582 127.383 234.203C130.95 232.142 133.86 227.131 133.86 223.011C133.86 220.258 132.557 218.611 130.636 218.425Z" fill="#8883F0"/>
<path opacity="0.8" d="M130.636 218.425C125.916 221.55 122.151 228.063 121.807 233.714C122.925 235.285 125.002 235.582 127.383 234.203C130.95 232.142 133.86 227.131 133.86 223.011C133.86 220.258 132.557 218.611 130.636 218.425Z" fill="black"/>
<path d="M130.59 223.657C130.557 224.262 130.382 224.851 130.078 225.376C129.775 225.901 129.352 226.347 128.844 226.677C127.883 227.259 127.098 226.782 127.098 225.67C127.132 225.065 127.308 224.475 127.611 223.95C127.914 223.424 128.336 222.977 128.844 222.644C129.786 222.091 130.59 222.539 130.59 223.657Z" fill="#FAFAFA"/>
<path d="M89.6808 232.98C89.6808 233.072 89.6537 233.161 89.6029 233.236C89.5521 233.312 89.4799 233.371 89.3956 233.406C89.3112 233.44 89.2185 233.449 89.1291 233.431C89.0398 233.413 88.9579 233.368 88.8938 233.303C88.8298 233.239 88.7864 233.156 88.7694 233.066C88.7523 232.977 88.7622 232.884 88.7979 232.8C88.8336 232.717 88.8934 232.645 88.9698 232.595C89.0462 232.545 89.1357 232.519 89.2268 232.521C89.2869 232.521 89.3464 232.533 89.4019 232.556C89.4574 232.579 89.5077 232.613 89.5499 232.656C89.5921 232.698 89.6254 232.749 89.6479 232.805C89.6704 232.861 89.6816 232.92 89.6808 232.98Z" fill="#8883F0"/>
<path d="M91.7526 231.723C91.7526 231.814 91.7254 231.904 91.6747 231.979C91.6239 232.055 91.5517 232.114 91.4674 232.149C91.383 232.183 91.2903 232.192 91.2009 232.174C91.1116 232.156 91.0297 232.111 90.9656 232.046C90.9015 231.981 90.8582 231.899 90.8411 231.809C90.8241 231.72 90.834 231.627 90.8697 231.543C90.9054 231.459 90.9652 231.388 91.0416 231.338C91.118 231.288 91.2074 231.262 91.2986 231.263C91.3587 231.263 91.4182 231.275 91.4737 231.299C91.5291 231.322 91.5794 231.356 91.6217 231.398C91.6639 231.441 91.6972 231.492 91.7197 231.548C91.7422 231.604 91.7533 231.663 91.7526 231.723Z" fill="#8883F0"/>
<path d="M93.8243 230.548C93.8255 230.639 93.7993 230.729 93.7493 230.805C93.6992 230.882 93.6274 230.942 93.5432 230.977C93.4589 231.013 93.366 231.022 93.2763 231.005C93.1866 230.987 93.1041 230.943 93.0395 230.879C92.9748 230.814 92.9309 230.731 92.9133 230.642C92.8958 230.552 92.9054 230.459 92.9409 230.375C92.9764 230.291 93.0363 230.219 93.1127 230.169C93.1892 230.119 93.2789 230.093 93.3703 230.094C93.4907 230.094 93.6062 230.142 93.6913 230.227C93.7765 230.312 93.8243 230.427 93.8243 230.548Z" fill="#8883F0"/>
<path d="M89.2264 236.053C89.4771 236.053 89.6804 235.85 89.6804 235.599C89.6804 235.349 89.4771 235.145 89.2264 235.145C88.9757 235.145 88.7725 235.349 88.7725 235.599C88.7725 235.85 88.9757 236.053 89.2264 236.053Z" fill="#8883F0"/>
<path d="M91.7525 234.342C91.7537 234.434 91.7276 234.523 91.6775 234.6C91.6274 234.676 91.5557 234.736 91.4714 234.772C91.3872 234.807 91.2942 234.817 91.2045 234.799C91.1148 234.782 91.0323 234.738 90.9677 234.673C90.903 234.609 90.8591 234.526 90.8416 234.436C90.824 234.347 90.8336 234.254 90.8691 234.169C90.9046 234.085 90.9645 234.013 91.041 233.963C91.1175 233.913 91.2071 233.887 91.2986 233.888C91.419 233.888 91.5344 233.936 91.6196 234.021C91.7047 234.106 91.7525 234.222 91.7525 234.342Z" fill="#8883F0"/>
<path d="M93.8243 233.172C93.8243 233.264 93.7972 233.353 93.7464 233.428C93.6957 233.504 93.6235 233.563 93.5391 233.598C93.4548 233.632 93.362 233.641 93.2727 233.623C93.1834 233.605 93.1014 233.56 93.0374 233.495C92.9733 233.431 92.93 233.348 92.9129 233.259C92.8958 233.169 92.9058 233.076 92.9415 232.992C92.9772 232.909 93.037 232.837 93.1134 232.787C93.1897 232.738 93.2792 232.712 93.3704 232.713C93.4305 232.713 93.49 232.725 93.5455 232.748C93.6009 232.771 93.6512 232.805 93.6935 232.848C93.7357 232.89 93.769 232.941 93.7915 232.997C93.8139 233.053 93.8251 233.112 93.8243 233.172Z" fill="#8883F0"/>
<path d="M89.2264 238.672C89.4771 238.672 89.6804 238.469 89.6804 238.218C89.6804 237.968 89.4771 237.764 89.2264 237.764C88.9757 237.764 88.7725 237.968 88.7725 238.218C88.7725 238.469 88.9757 238.672 89.2264 238.672Z" fill="#8883F0"/>
<path d="M91.2987 237.415C91.5494 237.415 91.7526 237.212 91.7526 236.961C91.7526 236.711 91.5494 236.507 91.2987 236.507C91.048 236.507 90.8447 236.711 90.8447 236.961C90.8447 237.212 91.048 237.415 91.2987 237.415Z" fill="#8883F0"/>
<path d="M93.8243 235.791C93.8255 235.883 93.7993 235.973 93.7493 236.049C93.6992 236.126 93.6274 236.185 93.5432 236.221C93.4589 236.256 93.366 236.266 93.2763 236.248C93.1866 236.231 93.1041 236.187 93.0395 236.122C92.9748 236.058 92.9309 235.975 92.9133 235.886C92.8958 235.796 92.9054 235.703 92.9409 235.619C92.9764 235.534 93.0363 235.463 93.1127 235.413C93.1892 235.362 93.2789 235.336 93.3703 235.337C93.4907 235.337 93.6062 235.385 93.6913 235.47C93.7765 235.556 93.8243 235.671 93.8243 235.791Z" fill="#8883F0"/>
<path d="M89.2264 241.297C89.4771 241.297 89.6804 241.094 89.6804 240.843C89.6804 240.592 89.4771 240.389 89.2264 240.389C88.9757 240.389 88.7725 240.592 88.7725 240.843C88.7725 241.094 88.9757 241.297 89.2264 241.297Z" fill="#8883F0"/>
<path d="M91.2987 240.04C91.5494 240.04 91.7526 239.837 91.7526 239.586C91.7526 239.335 91.5494 239.132 91.2987 239.132C91.048 239.132 90.8447 239.335 90.8447 239.586C90.8447 239.837 91.048 240.04 91.2987 240.04Z" fill="#8883F0"/>
<path d="M93.8243 238.41C93.8255 238.502 93.7993 238.592 93.7493 238.668C93.6992 238.745 93.6274 238.804 93.5432 238.84C93.4589 238.875 93.366 238.885 93.2763 238.867C93.1866 238.85 93.1041 238.806 93.0395 238.741C92.9748 238.677 92.9309 238.594 92.9133 238.505C92.8958 238.415 92.9054 238.322 92.9409 238.238C92.9764 238.153 93.0363 238.082 93.1127 238.032C93.1892 237.981 93.2789 237.955 93.3703 237.956C93.4907 237.956 93.6062 238.004 93.6913 238.089C93.7765 238.175 93.8243 238.29 93.8243 238.41Z" fill="#8883F0"/>
<path d="M89.6808 243.462C89.6681 243.575 89.6145 243.678 89.5302 243.753C89.446 243.829 89.3369 243.87 89.2239 243.87C89.1109 243.87 89.0019 243.829 88.9176 243.753C88.8334 243.678 88.7798 243.575 88.7671 243.462C88.7598 243.398 88.7662 243.333 88.7858 243.271C88.8055 243.209 88.8379 243.153 88.8811 243.104C88.9242 243.056 88.977 243.017 89.0361 242.991C89.0952 242.964 89.1592 242.951 89.2239 242.951C89.2887 242.951 89.3527 242.964 89.4118 242.991C89.4709 243.017 89.5237 243.056 89.5668 243.104C89.61 243.153 89.6424 243.209 89.662 243.271C89.6817 243.333 89.6881 243.398 89.6808 243.462Z" fill="#8883F0"/>
<path d="M91.2987 242.659C91.5494 242.659 91.7526 242.456 91.7526 242.205C91.7526 241.954 91.5494 241.751 91.2987 241.751C91.048 241.751 90.8447 241.954 90.8447 242.205C90.8447 242.456 91.048 242.659 91.2987 242.659Z" fill="#8883F0"/>
<path d="M93.8243 241.035C93.8243 241.127 93.7972 241.216 93.7464 241.291C93.6957 241.367 93.6235 241.426 93.5391 241.461C93.4548 241.495 93.362 241.504 93.2727 241.486C93.1834 241.468 93.1014 241.423 93.0374 241.358C92.9733 241.293 92.93 241.211 92.9129 241.121C92.8958 241.032 92.9058 240.939 92.9415 240.855C92.9772 240.771 93.037 240.7 93.1134 240.65C93.1897 240.6 93.2792 240.574 93.3704 240.576C93.4305 240.576 93.49 240.587 93.5455 240.611C93.6009 240.634 93.6512 240.668 93.6935 240.711C93.7357 240.753 93.769 240.804 93.7915 240.86C93.8139 240.916 93.8251 240.975 93.8243 241.035Z" fill="#8883F0"/>
<path d="M89.2264 246.535C89.4771 246.535 89.6804 246.332 89.6804 246.081C89.6804 245.831 89.4771 245.627 89.2264 245.627C88.9757 245.627 88.7725 245.831 88.7725 246.081C88.7725 246.332 88.9757 246.535 89.2264 246.535Z" fill="#8883F0"/>
<path d="M91.7525 244.824C91.7537 244.916 91.7276 245.005 91.6775 245.082C91.6274 245.158 91.5557 245.218 91.4714 245.254C91.3872 245.289 91.2942 245.299 91.2045 245.281C91.1148 245.264 91.0323 245.22 90.9677 245.155C90.903 245.09 90.8591 245.008 90.8416 244.918C90.824 244.828 90.8336 244.736 90.8691 244.651C90.9046 244.567 90.9645 244.495 91.041 244.445C91.1175 244.395 91.2071 244.369 91.2986 244.37C91.419 244.37 91.5344 244.418 91.6196 244.503C91.7047 244.588 91.7525 244.704 91.7525 244.824Z" fill="#8883F0"/>
<path d="M93.8243 243.654C93.8255 243.746 93.7993 243.835 93.7493 243.912C93.6992 243.988 93.6274 244.048 93.5432 244.084C93.4589 244.119 93.366 244.129 93.2763 244.111C93.1866 244.094 93.1041 244.05 93.0395 243.985C92.9748 243.921 92.9309 243.838 92.9133 243.748C92.8958 243.659 92.9054 243.566 92.9409 243.481C92.9764 243.397 93.0363 243.326 93.1127 243.275C93.1892 243.225 93.2789 243.199 93.3703 243.2C93.4907 243.2 93.6062 243.248 93.6913 243.333C93.7765 243.418 93.8243 243.534 93.8243 243.654Z" fill="#8883F0"/>
<path d="M89.2264 249.16C89.4771 249.16 89.6804 248.957 89.6804 248.706C89.6804 248.455 89.4771 248.252 89.2264 248.252C88.9757 248.252 88.7725 248.455 88.7725 248.706C88.7725 248.957 88.9757 249.16 89.2264 249.16Z" fill="#8883F0"/>
<path d="M91.7526 247.449C91.7526 247.54 91.7254 247.629 91.6747 247.705C91.6239 247.781 91.5517 247.84 91.4674 247.874C91.383 247.909 91.2903 247.918 91.2009 247.899C91.1116 247.881 91.0297 247.837 90.9656 247.772C90.9015 247.707 90.8582 247.625 90.8411 247.535C90.8241 247.445 90.834 247.353 90.8697 247.269C90.9054 247.185 90.9652 247.114 91.0416 247.064C91.118 247.014 91.2074 246.988 91.2986 246.989C91.3587 246.989 91.4182 247.001 91.4737 247.024C91.5291 247.047 91.5794 247.081 91.6217 247.124C91.6639 247.167 91.6972 247.218 91.7197 247.273C91.7422 247.329 91.7533 247.389 91.7526 247.449Z" fill="#8883F0"/>
<path d="M93.8243 246.273C93.8255 246.365 93.7993 246.454 93.7493 246.531C93.6992 246.607 93.6274 246.667 93.5432 246.703C93.4589 246.738 93.366 246.748 93.2763 246.73C93.1866 246.713 93.1041 246.669 93.0395 246.604C92.9748 246.54 92.9309 246.457 92.9133 246.367C92.8958 246.278 92.9054 246.185 92.9409 246.1C92.9764 246.016 93.0363 245.944 93.1127 245.894C93.1892 245.844 93.2789 245.818 93.3703 245.819C93.4907 245.819 93.6062 245.867 93.6913 245.952C93.7765 246.037 93.8243 246.153 93.8243 246.273Z" fill="#8883F0"/>
<path d="M122.942 184.529L121.085 184.814L115.597 181.642L106.174 187.084L100.354 187.969V190.43L106.256 193.835C108.002 194.842 110.638 194.953 112.152 194.08L121.894 188.452C122.172 188.327 122.411 188.132 122.59 187.886C122.769 187.64 122.88 187.351 122.913 187.049L122.942 184.529Z" fill="#8883F0"/>
<path opacity="0.2" d="M122.942 184.529L121.085 184.814L115.597 181.642L106.174 187.084L100.354 187.969V190.43L106.256 193.835C108.002 194.842 110.638 194.953 112.152 194.08L121.894 188.452C122.172 188.327 122.411 188.132 122.59 187.886C122.769 187.64 122.88 187.351 122.913 187.049L122.942 184.529Z" fill="black"/>
<path d="M121.918 185.99L112.175 191.618C110.662 192.491 108.025 192.38 106.279 191.373L100.378 187.986L115.597 179.198L121.499 182.603C123.245 183.592 123.431 185.117 121.918 185.99Z" fill="#8883F0"/>
<path d="M118.676 182.504L117.349 182.707L113.42 180.437L106.675 184.331L102.531 184.965V186.711L106.751 189.144C107.391 189.504 108.106 189.707 108.84 189.737C109.573 189.768 110.303 189.624 110.97 189.319L117.954 185.297C118.152 185.206 118.322 185.065 118.45 184.889C118.577 184.713 118.657 184.506 118.682 184.29L118.676 182.504Z" fill="#8883F0"/>
<path opacity="0.2" d="M118.676 182.504L117.349 182.707L113.42 180.437L106.675 184.331L102.531 184.965V186.711L106.751 189.144C107.391 189.504 108.106 189.707 108.84 189.737C109.573 189.768 110.303 189.624 110.97 189.319L117.954 185.297C118.152 185.206 118.322 185.065 118.45 184.889C118.577 184.713 118.657 184.506 118.682 184.29L118.676 182.504Z" fill="black"/>
<path d="M117.943 183.551L110.959 187.573C110.291 187.878 109.561 188.022 108.828 187.991C108.095 187.961 107.379 187.758 106.739 187.398L102.52 184.965L113.42 178.674L117.64 181.113C118.891 181.834 119.025 182.923 117.943 183.551Z" fill="#8883F0"/>
<path d="M92.096 202.775C92.1018 202.687 92.1018 202.6 92.096 202.513V198.794H79.9438V202.81C80.0079 203.653 80.5957 204.48 81.6898 205.138C83.0232 205.812 84.4965 206.164 85.9908 206.164C87.4851 206.164 88.9584 205.812 90.2918 205.138C91.4092 204.492 91.9912 203.665 92.0378 202.81L92.096 202.775Z" fill="#8883F0"/>
<path opacity="0.2" d="M92.096 202.775C92.1018 202.687 92.1018 202.6 92.096 202.513V198.794H79.9438V202.81C80.0079 203.653 80.5957 204.48 81.6898 205.138C83.0232 205.812 84.4965 206.164 85.9908 206.164C87.4851 206.164 88.9584 205.812 90.2918 205.138C91.4092 204.492 91.9912 203.665 92.0378 202.81L92.096 202.775Z" fill="black"/>
<path d="M90.3267 196.309C92.7013 197.682 92.7013 199.905 90.3267 201.273C88.9942 201.95 87.5205 202.303 86.0258 202.303C84.531 202.303 83.0573 201.95 81.7248 201.273C79.3502 199.905 79.3502 197.682 81.7248 196.309C83.0573 195.631 84.531 195.278 86.0258 195.278C87.5205 195.278 88.9942 195.631 90.3267 196.309Z" fill="#8883F0"/>
<path d="M126.364 177.947V176.346H121.481V177.964C121.515 178.165 121.598 178.355 121.722 178.517C121.845 178.679 122.006 178.809 122.191 178.895C122.727 179.165 123.319 179.305 123.92 179.305C124.52 179.305 125.112 179.165 125.648 178.895C125.832 178.808 125.993 178.678 126.116 178.516C126.24 178.354 126.323 178.165 126.358 177.964L126.364 177.947Z" fill="#8883F0"/>
<path opacity="0.2" d="M126.364 177.947V176.346H121.481V177.964C121.515 178.165 121.598 178.355 121.722 178.517C121.845 178.679 122.006 178.809 122.191 178.895C122.727 179.165 123.319 179.305 123.92 179.305C124.52 179.305 125.112 179.165 125.648 178.895C125.832 178.808 125.993 178.678 126.116 178.516C126.24 178.354 126.323 178.165 126.358 177.964L126.364 177.947Z" fill="black"/>
<path d="M125.654 175.351C126.608 175.904 126.608 176.794 125.654 177.347C125.118 177.617 124.526 177.757 123.925 177.757C123.325 177.757 122.733 177.617 122.197 177.347C121.242 176.765 121.242 175.904 122.197 175.351C122.732 175.078 123.325 174.936 123.925 174.936C124.526 174.936 125.118 175.078 125.654 175.351Z" fill="#8883F0"/>
<path d="M137.381 177.51C137.387 177.438 137.387 177.366 137.381 177.295V174.245H127.423V177.539C127.492 177.95 127.659 178.337 127.912 178.668C128.165 178.999 128.494 179.262 128.873 179.436C129.965 179.99 131.172 180.279 132.397 180.279C133.621 180.279 134.828 179.99 135.921 179.436C136.297 179.261 136.626 178.997 136.877 178.666C137.129 178.336 137.296 177.949 137.364 177.539L137.381 177.51Z" fill="#8883F0"/>
<path opacity="0.2" d="M137.381 177.51C137.387 177.438 137.387 177.366 137.381 177.295V174.245H127.423V177.539C127.492 177.95 127.659 178.337 127.912 178.668C128.165 178.999 128.494 179.262 128.873 179.436C129.965 179.99 131.172 180.279 132.397 180.279C133.621 180.279 134.828 179.99 135.921 179.436C136.297 179.261 136.626 178.997 136.877 178.666C137.129 178.336 137.296 177.949 137.364 177.539L137.381 177.51Z" fill="black"/>
<path d="M128.395 174.972V179.099C128.26 179.004 128.137 178.892 128.029 178.767V174.972H128.395Z" fill="#8883F0"/>
<path d="M129.786 174.972V179.838C129.661 179.798 129.538 179.749 129.419 179.692V174.967L129.786 174.972Z" fill="#8883F0"/>
<path d="M131.189 174.972V180.181C131.066 180.171 130.943 180.151 130.822 180.123V174.972H131.189Z" fill="#8883F0"/>
<path d="M132.585 174.972V180.269H132.225V174.972H132.585Z" fill="#8883F0"/>
<path d="M133.988 174.972V180.123C133.869 180.151 133.749 180.17 133.627 180.181V174.972H133.988Z" fill="#8883F0"/>
<path d="M135.385 174.972V179.698C135.269 179.755 135.148 179.804 135.024 179.844V174.972H135.385Z" fill="#8883F0"/>
<path d="M136.77 174.972V178.773C136.661 178.892 136.54 178.999 136.409 179.093V174.972H136.77Z" fill="#8883F0"/>
<path d="M135.932 172.208C137.876 173.331 137.876 175.153 135.932 176.282C134.84 176.836 133.633 177.124 132.408 177.124C131.184 177.124 129.976 176.836 128.884 176.282C126.934 175.153 126.934 173.331 128.884 172.208C129.976 171.654 131.184 171.366 132.408 171.366C133.633 171.366 134.84 171.654 135.932 172.208Z" fill="#8883F0"/>
<path opacity="0.2" d="M132.405 175.496C133.604 175.496 134.576 174.936 134.576 174.245C134.576 173.554 133.604 172.994 132.405 172.994C131.206 172.994 130.234 173.554 130.234 174.245C130.234 174.936 131.206 175.496 132.405 175.496Z" fill="black"/>
<path d="M246.617 233.801C246.617 233.801 250.056 231.88 250.493 229.727C250.929 227.574 247.146 222.644 247.146 222.644C247.146 222.644 244.324 224.262 246.617 233.801Z" fill="#8883F0"/>
<path opacity="0.2" d="M246.617 233.801C246.617 233.801 250.056 231.88 250.493 229.727C250.929 227.574 247.146 222.644 247.146 222.644C247.146 222.644 244.324 224.262 246.617 233.801Z" fill="black"/>
<path d="M204.497 240.442L209.52 237.479L210.177 232.457L208.449 232.049L204.497 240.442Z" fill="#8883F0"/>
<path opacity="0.3" d="M204.497 240.442L209.52 237.479L210.177 232.457L208.449 232.049L204.497 240.442Z" fill="black"/>
<path d="M234.214 211.551L238.905 219.041L242.036 229.413C242.036 229.413 247.804 228.697 244.172 215.381L241.46 207.349L234.214 211.551Z" fill="#B65555"/>
<path d="M203.508 214.351L204.497 226.287L201.04 235.419C201.04 235.419 202.786 239.703 208.204 230.647C211.08 225.845 211.178 224.891 211.178 224.891L212.342 214.351H203.508Z" fill="#B65555"/>
<path d="M207.984 98.1019L206.238 101.594C206.212 101.645 206.198 101.7 206.196 101.757C206.193 101.813 206.203 101.87 206.225 101.922C206.246 101.975 206.279 102.022 206.32 102.06C206.362 102.099 206.411 102.129 206.465 102.147L208.56 102.845L207.984 98.1019Z" fill="#703838"/>
<path d="M210.428 92.247C210.428 92.247 207.774 93.702 207.774 101.955C207.774 106.5 208.088 109.393 210.451 109.218C212.814 109.044 219.606 108.147 219.606 108.147V92.247H210.428Z" fill="#B65555"/>
<path d="M210.428 109.218C211.254 109.154 212.634 109.003 214.071 108.834V107.99C212.775 108.548 211.42 108.958 210.032 109.212C210.164 109.226 210.296 109.228 210.428 109.218Z" fill="#703838"/>
<path d="M213.669 107.635V112.827H220.764V105.534L213.669 107.635Z" fill="#FFA8A7"/>
<path d="M225.816 125.857L230.425 135.327L226.98 139.855L229.372 147.944L236.781 139.214C237.426 138.457 237.854 137.538 238.019 136.556C238.184 135.574 238.08 134.566 237.718 133.639C235.681 128.401 231.618 118.07 230.518 116.243C229.04 113.775 227.271 112.46 224.617 112.541C221.963 112.623 225.816 125.857 225.816 125.857Z" fill="#B65555"/>
<path d="M228.039 141.426C229.11 144.639 231.444 149.155 231.345 164.345C231.281 174.961 231.38 180.932 231.444 183.551C231.465 184.492 231.834 185.392 232.48 186.077C233.603 187.241 235.529 189.755 237.339 194.504C238.959 198.701 240.334 202.988 241.46 207.343C241.46 207.343 240.139 211.627 234.214 211.545L219.414 187.724C218.818 186.771 218.435 185.701 218.291 184.587L214.397 154.998V142.898L228.039 141.426Z" fill="#37474F"/>
<path d="M217.499 178.726L221.619 163.973C221.619 163.973 227.405 158.089 225.344 147.944L216.614 158.95L217.057 175.752L217.499 178.726Z" fill="#263238"/>
<path d="M203.921 142.241C203.677 147.013 201.081 176.73 201.453 185.373C201.826 194.016 203.508 214.351 203.508 214.351C203.508 214.351 209.107 216.679 212.319 214.351C212.319 214.351 213.675 206.342 214.56 199.999C215.101 196.724 214.988 193.376 214.228 190.145C213.917 188.963 213.917 187.719 214.228 186.537L220.531 162.326C220.531 162.326 225.979 158.502 225.979 147.944V140.018L203.921 142.241Z" fill="#37474F"/>
<path d="M219.071 109.183L207.774 113.344C207.774 113.344 202.46 117.954 202.46 126.765C202.46 129.233 204.852 131.456 204.852 131.456C204.852 131.456 204.026 139.191 203.945 142.241C203.945 142.241 209.765 146.315 220.561 144.708C224.443 144.126 228.063 141.414 228.063 141.414C228.063 141.414 226.416 134.582 226.171 133.924C225.927 133.266 228.499 125.281 228.499 118.943L219.071 109.183Z" fill="#8883F0"/>
<path d="M209.049 94.0861C209.049 94.0861 209.503 98.0845 212.052 99.1728C212.052 99.1728 210.032 101.943 213.035 103.159V101.018L214.292 103.468C214.292 103.468 210.754 117.791 216.888 117.791C217.95 117.808 218.983 117.443 219.798 116.761C219.798 116.761 220.741 120.509 226.421 120.509C232.102 120.509 233.173 114.951 233.173 114.951C233.173 114.951 229.39 116.115 229.39 112.151C229.39 108.188 229.099 95.5237 228.895 93.5914C228.511 91.5675 227.481 89.7227 225.959 88.3342C224.438 86.9458 222.506 86.0886 220.456 85.8916C216.033 85.3678 210.288 85.4027 206.994 89.9656C203.7 94.5284 208.42 95.7856 208.42 95.7856C208.42 95.7856 208.496 95.6575 209.049 94.0861Z" fill="#263238"/>
<path d="M213.012 101.018C213.012 101.018 212.82 97.5257 215.526 97.7935C218.634 98.1019 217.644 103.718 213.856 103.718L213.012 101.018Z" fill="#B65555"/>
<path d="M207.774 113.345C200.866 115.539 187.73 122.482 187.73 122.482L175.712 111.866L171.201 116.72C174.921 121.7 179.154 126.274 183.831 130.368C184.576 131.025 185.489 131.462 186.468 131.632C187.447 131.801 188.454 131.696 189.377 131.328C191.787 130.368 195.197 129.035 197.746 128.081C202.193 126.434 211.574 124.129 211.574 119.025C211.574 113.921 207.774 113.345 207.774 113.345Z" fill="#B65555"/>
<path d="M211.178 224.891C210.316 225.031 209.498 225.372 208.79 225.885C208.083 226.399 207.506 227.071 207.104 227.847C205.783 230.484 203.316 237.892 201.011 235.413L201.791 233.347C201.791 233.347 192.584 235.367 194.807 237.776C197.03 240.186 203.921 241.268 204.497 240.436C205.073 239.604 208.204 233.685 208.204 233.685L209.95 241.588C210.201 241.806 210.523 241.927 210.855 241.927C211.188 241.927 211.509 241.806 211.76 241.588C211.76 241.588 213.995 226.456 211.178 224.891Z" fill="#8883F0"/>
<path d="M242.036 229.413C242.036 229.413 244.172 228.505 243.846 225.711C243.52 222.918 241.378 217.336 244.172 215.381C245.412 214.514 248.165 218.291 250.493 222.83C252.821 227.37 253.478 228.65 253.478 228.65C253.478 228.65 253.216 229.855 252.157 229.814L247.053 224.547C246.723 226.156 246.781 227.82 247.222 229.401C247.961 231.869 248.06 233.306 245.371 234.505C242.682 235.704 235.32 237.34 239.254 232.364C241.21 229.89 242.036 229.413 242.036 229.413Z" fill="#8883F0"/>
<path d="M175.805 112.565C176.087 110.889 176.476 109.232 176.969 107.606C177.51 106.209 177.748 105.022 176.422 105.552C175.095 106.081 174.047 108.462 173.954 108.764C173.954 108.764 167.208 100.779 166.277 100.861C165.346 100.942 165.468 102.077 167.261 104.516L169.048 106.96C169.048 106.96 164.328 109.189 164.834 112.076C165.34 114.962 171.172 116.732 171.172 116.732L175.805 112.565Z" fill="#B65555"/>
</svg>
