<svg width="68" height="68" viewBox="0 0 68 68" fill="none" xmlns="http://www.w3.org/2000/svg">
<path d="M46.75 29.75H40.375C39.8114 29.75 39.2709 29.5261 38.8724 29.1276C38.4739 28.7291 38.25 28.1886 38.25 27.625C38.25 27.0614 38.4739 26.5209 38.8724 26.1224C39.2709 25.7239 39.8114 25.5 40.375 25.5H46.75C47.3136 25.5 47.8541 25.7239 48.2526 26.1224C48.6511 26.5209 48.875 27.0614 48.875 27.625C48.875 28.1886 48.6511 28.7291 48.2526 29.1276C47.8541 29.5261 47.3136 29.75 46.75 29.75ZM27.625 25.5H25.5V23.375C25.5 22.8114 25.2761 22.2709 24.8776 21.8724C24.4791 21.4739 23.9386 21.25 23.375 21.25C22.8114 21.25 22.2709 21.4739 21.8724 21.8724C21.4739 22.2709 21.25 22.8114 21.25 23.375V25.5H19.125C18.5614 25.5 18.0209 25.7239 17.6224 26.1224C17.2239 26.5209 17 27.0614 17 27.625C17 28.1886 17.2239 28.7291 17.6224 29.1276C18.0209 29.5261 18.5614 29.75 19.125 29.75H21.25V31.875C21.25 32.4386 21.4739 32.9791 21.8724 33.3776C22.2709 33.7761 22.8114 34 23.375 34C23.9386 34 24.4791 33.7761 24.8776 33.3776C25.2761 32.9791 25.5 32.4386 25.5 31.875V29.75H27.625C28.1886 29.75 28.7291 29.5261 29.1276 29.1276C29.5261 28.7291 29.75 28.1886 29.75 27.625C29.75 27.0614 29.5261 26.5209 29.1276 26.1224C28.7291 25.7239 28.1886 25.5 27.625 25.5ZM64.1431 53.2977C63.3423 54.4413 62.3007 55.3957 61.0916 56.0938C59.8824 56.7919 58.5351 57.2167 57.1443 57.3385C55.7534 57.4603 54.3528 57.276 53.0407 56.7986C51.7287 56.3213 50.5371 55.5624 49.5497 54.5753C49.5178 54.5434 49.4859 54.5116 49.4567 54.477L38.9088 42.5H29.0806L18.5433 54.477L18.4503 54.5753C16.6552 56.3665 14.2234 57.3733 11.6875 57.375C10.2915 57.3745 8.9125 57.0683 7.64743 56.478C6.38236 55.8877 5.26189 55.0275 4.36472 53.9579C3.46755 52.8884 2.81545 51.6353 2.45422 50.2869C2.09298 48.9384 2.03139 47.5272 2.27375 46.1523C2.27247 46.14 2.27247 46.1275 2.27375 46.1152L6.62204 23.7787C7.26918 20.0947 9.19397 16.7566 12.0582 14.351C14.9224 11.9453 18.5428 10.6261 22.2833 10.625H45.6875C49.4167 10.6309 53.026 11.9427 55.8888 14.3324C58.7516 16.7221 60.6872 20.039 61.3594 23.707C61.3594 23.723 61.3594 23.7389 61.3594 23.7548L65.7077 46.1125C65.7089 46.1249 65.7089 46.1373 65.7077 46.1497C65.9327 47.3854 65.9103 48.6535 65.6417 49.8805C65.3732 51.1074 64.8638 52.2689 64.1431 53.2977ZM45.6875 38.25C48.7872 38.25 51.76 37.0186 53.9518 34.8268C56.1437 32.635 57.375 29.6622 57.375 26.5625C57.375 23.4628 56.1437 20.49 53.9518 18.2982C51.76 16.1064 48.7872 14.875 45.6875 14.875H22.2833C19.5392 14.8775 16.884 15.8475 14.7846 17.6146C12.6853 19.3816 11.2763 21.8324 10.8056 24.5358V24.5703L6.45469 46.9067C6.26237 48.0141 6.42622 49.1539 6.92266 50.1623C7.41911 51.1706 8.22257 51.9956 9.2175 52.5184C10.2124 53.0413 11.3475 53.2351 12.4596 53.072C13.5716 52.909 14.6033 52.3974 15.4063 51.6109L26.5413 38.9698C26.7406 38.7437 26.9859 38.5625 27.2606 38.4384C27.5354 38.3143 27.8335 38.25 28.135 38.25H45.6875ZM61.5453 46.9067L59.2238 34.9536C57.7959 37.2592 55.8034 39.1624 53.4347 40.4829C51.0659 41.8035 48.3994 42.4977 45.6875 42.5H44.5719L52.5938 51.6136C53.1986 52.2019 53.9343 52.6384 54.7405 52.8873C55.5467 53.1361 56.4004 53.1903 57.2316 53.0453C58.6162 52.8009 59.8475 52.0175 60.6556 50.8669C61.4637 49.7162 61.7827 48.2921 61.5427 46.9067H61.5453Z" fill="#8883F0"/>
</svg>
