<svg width="68" height="68" viewBox="0 0 68 68" fill="none" xmlns="http://www.w3.org/2000/svg">
<path d="M53.125 21.25H48.875V17C48.8731 15.2743 48.3459 13.59 47.3636 12.1712C46.3813 10.7523 44.9903 9.66607 43.3757 9.05685C41.7611 8.44762 39.9993 8.34429 38.3246 8.76057C36.6498 9.17686 35.1415 10.0931 34 11.3873C32.9122 10.1544 31.49 9.26338 29.906 8.82236C28.322 8.38134 26.644 8.40922 25.0755 8.90263C23.507 9.39604 22.1153 10.3338 21.069 11.6022C20.0228 12.8707 19.3668 14.4153 19.1808 16.0491C17.8898 15.2906 16.4214 14.8866 14.9241 14.8779C13.4268 14.8693 11.9538 15.2563 10.6542 15.9998C9.35454 16.7433 8.27434 17.8169 7.52292 19.112C6.77149 20.4071 6.37549 21.8777 6.375 23.375V34C6.375 41.3266 9.28548 48.3531 14.4662 53.5338C19.6469 58.7145 26.6734 61.625 34 61.625C41.3266 61.625 48.3531 58.7145 53.5338 53.5338C58.7145 48.3531 61.625 41.3266 61.625 34V29.75C61.625 27.4957 60.7295 25.3337 59.1354 23.7396C57.5413 22.1455 55.3793 21.25 53.125 21.25ZM40.375 12.75C41.5022 12.75 42.5832 13.1978 43.3802 13.9948C44.1772 14.7918 44.625 15.8728 44.625 17V21.25H36.125V17C36.125 15.8728 36.5728 14.7918 37.3698 13.9948C38.1668 13.1978 39.2478 12.75 40.375 12.75ZM23.375 17C23.375 15.8728 23.8228 14.7918 24.6198 13.9948C25.4168 13.1978 26.4978 12.75 27.625 12.75C28.7522 12.75 29.8332 13.1978 30.6302 13.9948C31.4272 14.7918 31.875 15.8728 31.875 17V27.625C31.875 28.7522 31.4272 29.8332 30.6302 30.6302C29.8332 31.4272 28.7522 31.875 27.625 31.875C26.4978 31.875 25.4168 31.4272 24.6198 30.6302C23.8228 29.8332 23.375 28.7522 23.375 27.625V17ZM10.625 23.375C10.625 22.2478 11.0728 21.1668 11.8698 20.3698C12.6668 19.5728 13.7478 19.125 14.875 19.125C16.0022 19.125 17.0832 19.5728 17.8802 20.3698C18.6772 21.1668 19.125 22.2478 19.125 23.375V27.625C19.125 28.7522 18.6772 29.8332 17.8802 30.6302C17.0832 31.4272 16.0022 31.875 14.875 31.875C13.7478 31.875 12.6668 31.4272 11.8698 30.6302C11.0728 29.8332 10.625 28.7522 10.625 27.625V23.375ZM57.375 34C57.3749 40.1131 54.98 45.9829 50.7037 50.3513C46.4273 54.7197 40.6099 57.239 34.4982 57.3693C28.3865 57.4996 22.4669 55.2304 18.0083 51.0482C13.5497 46.866 10.9069 41.1036 10.6463 34.9961C12.3448 35.973 14.3292 36.3316 16.2622 36.0111C18.1953 35.6905 19.9577 34.7105 21.25 33.2377C22.7145 34.9064 24.775 35.9343 26.9891 36.1007C29.2031 36.2671 31.3941 35.5586 33.0916 34.1275C33.856 35.3944 34.936 36.4414 36.2259 37.1663C34.8587 38.3606 33.763 39.8339 33.0126 41.4869C32.2621 43.14 31.8742 44.9346 31.875 46.75C31.875 47.3136 32.0989 47.8541 32.4974 48.2526C32.8959 48.6511 33.4364 48.875 34 48.875C34.5636 48.875 35.1041 48.6511 35.5026 48.2526C35.9011 47.8541 36.125 47.3136 36.125 46.75C36.125 44.4957 37.0205 42.3337 38.6146 40.7396C40.2087 39.1455 42.3707 38.25 44.625 38.25C45.1886 38.25 45.7291 38.0261 46.1276 37.6276C46.5261 37.2291 46.75 36.6886 46.75 36.125C46.75 35.5614 46.5261 35.0209 46.1276 34.6224C45.7291 34.2239 45.1886 34 44.625 34H40.375C39.2478 34 38.1668 33.5522 37.3698 32.7552C36.5728 31.9582 36.125 30.8772 36.125 29.75V25.5H53.125C54.2522 25.5 55.3332 25.9478 56.1302 26.7448C56.9272 27.5418 57.375 28.6228 57.375 29.75V34Z" fill="#8883F0"/>
</svg>
