<svg width="61" height="71" viewBox="0 0 61 71" fill="none" xmlns="http://www.w3.org/2000/svg">
<path d="M54.9311 31.125L49.8686 22.3556C49.2048 21.2043 48.2604 20.2397 47.1234 19.5517C45.9864 18.8637 44.6937 18.4746 43.3658 18.4207C42.038 18.3668 40.718 18.6498 39.529 19.2434C38.34 19.837 37.3205 20.7219 36.5655 21.8156L32.2511 14.3372C31.5687 13.1553 30.5908 12.1711 29.4133 11.4811C28.2359 10.791 26.8993 10.4188 25.5346 10.401C24.17 10.3831 22.8242 10.7202 21.629 11.3792C20.4339 12.0382 19.4306 12.9964 18.7174 14.16C17.3245 12.906 15.53 12.1898 13.6565 12.1403C11.7829 12.0908 9.95313 12.711 8.49591 13.8897C7.0387 15.0683 6.04963 16.7281 5.70645 18.5706C5.36327 20.4131 5.68848 22.3176 6.62364 23.9419L7.56302 25.5703C6.23817 25.6768 4.96182 26.1168 3.85286 26.8495C2.74391 27.5822 1.83844 28.5836 1.22079 29.7605C0.603147 30.9374 0.293425 32.2515 0.32048 33.5803C0.347534 34.9091 0.710484 36.2095 1.37552 37.3603L12.063 55.8722C13.6814 58.692 15.8428 61.163 18.4222 63.1423C21.0015 65.1215 23.9476 66.5698 27.0902 67.4034C29.1929 67.9651 31.3601 68.2488 33.5365 68.2472C37.8772 68.24 42.1398 67.0913 45.8964 64.9163C49.653 62.7414 52.7715 59.6167 54.939 55.8558C57.1065 52.0949 58.2468 47.8301 58.2454 43.4894C58.244 39.1486 57.101 34.8845 54.9311 31.125ZM53.0552 48.7397C52.0188 52.6083 49.8584 56.0828 46.8473 58.7236C43.8363 61.3645 40.1097 63.0531 36.1389 63.5761C32.1681 64.099 28.1314 63.4327 24.5393 61.6614C20.9472 59.8901 17.961 57.0934 15.9583 53.625L5.27083 35.1131C5.04923 34.7292 4.90541 34.3054 4.8476 33.8659C4.78979 33.4263 4.81911 32.9798 4.93389 32.5516C5.1657 31.6868 5.73154 30.9496 6.50693 30.502C7.28231 30.0545 8.20373 29.9333 9.06848 30.1651C9.49666 30.2799 9.89803 30.4779 10.2497 30.7478C10.6014 31.0177 10.8964 31.3542 11.118 31.7381L17.3055 42.4537C17.4489 42.7178 17.6437 42.9504 17.8785 43.138C18.1132 43.3255 18.3831 43.4641 18.6723 43.5457C18.9615 43.6272 19.2641 43.6499 19.5623 43.6126C19.8604 43.5753 20.148 43.4787 20.4082 43.3284C20.6684 43.1781 20.8958 42.9772 21.0771 42.7376C21.2584 42.498 21.3899 42.2245 21.4637 41.9333C21.5376 41.6421 21.5524 41.339 21.5073 41.0419C21.4621 40.7449 21.3579 40.4599 21.2008 40.2037L10.5133 21.6947C10.1796 21.1166 10.0248 20.4525 10.0685 19.7864C10.1122 19.1203 10.3525 18.4821 10.7589 17.9526C11.1653 17.423 11.7197 17.0259 12.3518 16.8114C12.9839 16.5969 13.6654 16.5746 14.3102 16.7475C14.7391 16.8606 15.1412 17.0579 15.4932 17.3278C15.8452 17.5977 16.14 17.9348 16.3605 18.3197L25.923 34.8825C26.2296 35.3824 26.7193 35.7429 27.2878 35.8871C27.8563 36.0313 28.4586 35.9479 28.9664 35.6545C29.4743 35.3612 29.8475 34.8811 30.0066 34.3167C30.1658 33.7522 30.0982 33.1479 29.8183 32.6325L22.5058 19.9762C22.0776 19.2024 21.9702 18.2914 22.2068 17.4392C22.4434 16.587 23.0051 15.8617 23.771 15.4194C24.5369 14.9771 25.4459 14.8531 26.3022 15.0741C27.1586 15.2952 27.894 15.8435 28.3502 16.6012L37.9999 33.3131C35.5434 35.3484 33.8855 38.1867 33.3194 41.3262C32.7533 44.4657 33.3153 47.7042 34.9061 50.4694C35.2045 50.9863 35.696 51.3635 36.2725 51.5181C36.849 51.6726 37.4633 51.5918 37.9802 51.2934C38.4971 50.9951 38.8744 50.5036 39.0289 49.9271C39.1834 49.3506 39.1026 48.7363 38.8043 48.2194C37.611 46.1524 37.2876 43.696 37.9052 41.3906C38.5228 39.0852 40.0309 37.1195 42.0977 35.9259C42.3537 35.7782 42.5781 35.5816 42.7581 35.3471C42.938 35.1127 43.07 34.8451 43.1466 34.5596C43.2231 34.2742 43.2426 33.9764 43.2041 33.6834C43.1655 33.3904 43.0696 33.1078 42.9218 32.8519L40.1093 27.9806C39.681 27.2068 39.5736 26.2957 39.8103 25.4435C40.0469 24.5913 40.6085 23.866 41.3745 23.4238C42.1404 22.9815 43.0493 22.8575 43.9057 23.0785C44.7621 23.2995 45.4975 23.8479 45.9536 24.6056L51.0161 33.375C52.3553 35.6734 53.2251 38.2147 53.5751 40.8516C53.9251 43.4885 53.7484 46.1687 53.0552 48.7369V48.7397ZM15.7558 69.6563C15.5729 69.8885 15.346 70.0824 15.0881 70.2269C14.8302 70.3714 14.5463 70.4636 14.2527 70.4984C13.9591 70.5331 13.6616 70.5097 13.3771 70.4293C13.0926 70.349 12.8267 70.2134 12.5946 70.0303C9.50083 67.5863 6.93864 64.5234 4.55083 60.3891C4.25246 59.8721 4.17166 59.2579 4.3262 58.6814C4.48075 58.1049 4.85797 57.6134 5.37489 57.315C5.89182 57.0166 6.5061 56.9358 7.0826 57.0904C7.65909 57.2449 8.15059 57.6221 8.44896 58.1391C10.5415 61.7616 12.7436 64.4166 15.3818 66.4978C15.85 66.8672 16.1524 67.4074 16.2225 67.9996C16.2926 68.5918 16.1248 69.1877 15.7558 69.6563Z" fill="#8883F0"/>
<path d="M60.1056 11.091C60.5276 10.669 60.7646 10.0967 60.7646 9.5C60.7646 8.90326 60.5276 8.33097 60.1056 7.90901C59.6837 7.48705 59.1114 7.25 58.5146 7.25H54.0146V2.75C54.0146 2.15326 53.7776 1.58097 53.3556 1.15901C52.9337 0.737053 52.3614 0.5 51.7646 0.5C51.1679 0.5 50.5956 0.737053 50.1737 1.15901C49.7517 1.58097 49.5146 2.15326 49.5146 2.75V7.25H45.0146C44.4179 7.25 43.8456 7.48705 43.4237 7.90901C43.0017 8.33097 42.7646 8.90326 42.7646 9.5C42.7646 10.0967 43.0017 10.669 43.4237 11.091C43.8456 11.5129 44.4179 11.75 45.0146 11.75H49.5146V16.25C49.5146 16.8467 49.7517 17.419 50.1737 17.841C50.5956 18.2629 51.1679 18.5 51.7646 18.5C52.3614 18.5 52.9337 18.2629 53.3556 17.841C53.7776 17.419 54.0146 16.8467 54.0146 16.25V11.75H58.5146C59.1114 11.75 59.6837 11.5129 60.1056 11.091Z" fill="#8883F0"/>
</svg>
