<svg width="68" height="68" viewBox="0 0 68 68" fill="none" xmlns="http://www.w3.org/2000/svg">
<path d="M59.3698 12.75H8.63547C7.47329 12.75 6.35863 13.2113 5.53635 14.0326C4.71407 14.8539 4.25141 15.968 4.25 17.1302V50.8645C4.25 52.0267 4.71131 53.1414 5.5326 53.9636C6.35388 54.7859 7.46798 55.2486 8.63016 55.25H59.3645C60.5267 55.25 61.6414 54.7887 62.4636 53.9674C63.2859 53.1461 63.7486 52.032 63.75 50.8698V17.1355C63.75 15.9733 63.2887 14.8586 62.4674 14.0364C61.6461 13.2141 60.532 12.7514 59.3698 12.75ZM59.5 50.8698C59.5 50.8869 59.4966 50.9039 59.4901 50.9197C59.4836 50.9354 59.474 50.9498 59.4619 50.9619C59.4498 50.974 59.4354 50.9836 59.4197 50.9901C59.4039 50.9966 59.3869 51 59.3698 51H8.63547C8.61838 51 8.60145 50.9966 8.58566 50.9901C8.56987 50.9836 8.55552 50.974 8.54343 50.9619C8.53135 50.9498 8.52176 50.9354 8.51522 50.9197C8.50868 50.9039 8.50531 50.8869 8.50531 50.8698V17.1355C8.50531 17.1009 8.51903 17.0678 8.54343 17.0434C8.56784 17.019 8.60095 17.0053 8.63547 17.0053H59.3698C59.4044 17.0053 59.4375 17.019 59.4619 17.0434C59.4863 17.0678 59.5 17.1009 59.5 17.1355V50.8698ZM55.25 34C55.25 34.5636 55.0261 35.1041 54.6276 35.5026C54.2291 35.9011 53.6886 36.125 53.125 36.125H14.875C14.3114 36.125 13.7709 35.9011 13.3724 35.5026C12.9739 35.1041 12.75 34.5636 12.75 34C12.75 33.4364 12.9739 32.8959 13.3724 32.4974C13.7709 32.0989 14.3114 31.875 14.875 31.875H53.125C53.6886 31.875 54.2291 32.0989 54.6276 32.4974C55.0261 32.8959 55.25 33.4364 55.25 34ZM55.25 25.5C55.25 26.0636 55.0261 26.6041 54.6276 27.0026C54.2291 27.4011 53.6886 27.625 53.125 27.625H14.875C14.3114 27.625 13.7709 27.4011 13.3724 27.0026C12.9739 26.6041 12.75 26.0636 12.75 25.5C12.75 24.9364 12.9739 24.3959 13.3724 23.9974C13.7709 23.5989 14.3114 23.375 14.875 23.375H53.125C53.6886 23.375 54.2291 23.5989 54.6276 23.9974C55.0261 24.3959 55.25 24.9364 55.25 25.5ZM19.125 42.5C19.125 43.0636 18.9011 43.6041 18.5026 44.0026C18.1041 44.4011 17.5636 44.625 17 44.625H14.875C14.3114 44.625 13.7709 44.4011 13.3724 44.0026C12.9739 43.6041 12.75 43.0636 12.75 42.5C12.75 41.9364 12.9739 41.3959 13.3724 40.9974C13.7709 40.5989 14.3114 40.375 14.875 40.375H17C17.5636 40.375 18.1041 40.5989 18.5026 40.9974C18.9011 41.3959 19.125 41.9364 19.125 42.5ZM44.625 42.5C44.625 43.0636 44.4011 43.6041 44.0026 44.0026C43.6041 44.4011 43.0636 44.625 42.5 44.625H25.5C24.9364 44.625 24.3959 44.4011 23.9974 44.0026C23.5989 43.6041 23.375 43.0636 23.375 42.5C23.375 41.9364 23.5989 41.3959 23.9974 40.9974C24.3959 40.5989 24.9364 40.375 25.5 40.375H42.5C43.0636 40.375 43.6041 40.5989 44.0026 40.9974C44.4011 41.3959 44.625 41.9364 44.625 42.5ZM55.25 42.5C55.25 43.0636 55.0261 43.6041 54.6276 44.0026C54.2291 44.4011 53.6886 44.625 53.125 44.625H51C50.4364 44.625 49.8959 44.4011 49.4974 44.0026C49.0989 43.6041 48.875 43.0636 48.875 42.5C48.875 41.9364 49.0989 41.3959 49.4974 40.9974C49.8959 40.5989 50.4364 40.375 51 40.375H53.125C53.6886 40.375 54.2291 40.5989 54.6276 40.9974C55.0261 41.3959 55.25 41.9364 55.25 42.5Z" fill="#8883F0"/>
</svg>
