<svg width="68" height="68" viewBox="0 0 68 68" fill="none" xmlns="http://www.w3.org/2000/svg">
<path d="M44.625 4.25C39.5542 4.25492 34.6926 6.27145 31.107 9.85702C27.5215 13.4426 25.5049 18.3042 25.5 23.375C25.5019 24.2118 25.5578 25.0476 25.6673 25.8772L7.20375 51.0584C6.59942 51.8758 6.30951 52.8834 6.38706 53.8969C6.46462 54.9105 6.90444 55.8622 7.6261 56.5781L11.4219 60.3739C12.1378 61.0956 13.0895 61.5354 14.1031 61.6129C15.1166 61.6905 16.1242 61.4006 16.9416 60.7962L42.1255 42.3273C42.9541 42.4385 43.789 42.4962 44.625 42.5C49.6973 42.5 54.5618 40.4851 58.1484 36.8984C61.7351 33.3118 63.75 28.4473 63.75 23.375C63.75 18.3027 61.7351 13.4382 58.1484 9.85158C54.5618 6.26495 49.6973 4.25 44.625 4.25ZM59.5 23.375C59.5038 26.5859 58.4634 29.711 56.5356 32.2787L35.7239 11.4644C37.9347 9.81322 40.5611 8.80954 43.3096 8.56554C46.0581 8.32154 48.8203 8.84684 51.2874 10.0827C53.7545 11.3186 55.8292 13.2163 57.2795 15.5637C58.7298 17.9111 59.4987 20.6157 59.5 23.375ZM14.4288 57.375L10.625 53.5712L27.1309 31.0781C29.0651 35.4447 32.5553 38.9349 36.9219 40.8691L14.4288 57.375ZM29.75 23.375C29.7458 20.1649 30.7863 17.0405 32.7144 14.4739L53.5234 35.283C51.3128 36.9332 48.6869 37.9362 45.939 38.1799C43.1912 38.4236 40.4297 37.8984 37.9632 36.6629C35.4967 35.4275 33.4223 33.5305 31.9719 31.1839C30.5215 28.8373 29.7522 26.1336 29.75 23.375ZM29.1258 38.8716C29.524 39.27 29.7477 39.8103 29.7477 40.3737C29.7477 40.937 29.524 41.4773 29.1258 41.8758L27.0008 44.0008C26.8054 44.2064 26.5709 44.3709 26.311 44.4844C26.051 44.598 25.771 44.6583 25.4874 44.662C25.2038 44.6656 24.9223 44.6124 24.6596 44.5056C24.3969 44.3987 24.1582 44.2403 23.9576 44.0397C23.757 43.8392 23.5987 43.6005 23.4918 43.3378C23.3849 43.075 23.3317 42.7936 23.3354 42.5099C23.339 42.2263 23.3994 41.9463 23.5129 41.6864C23.6265 41.4265 23.7909 41.1919 23.9966 40.9966L26.1216 38.8716C26.3188 38.6734 26.5532 38.5161 26.8113 38.4087C27.0694 38.3013 27.3462 38.2459 27.6258 38.2457C27.9054 38.2454 28.1822 38.3003 28.4405 38.4073C28.6989 38.5142 28.9335 38.6711 29.1311 38.8689L29.1258 38.8716Z" fill="#8883F0"/>
</svg>
