<svg width="72" height="72" viewBox="0 0 72 72" fill="none" xmlns="http://www.w3.org/2000/svg">
<path d="M51.75 31.5C51.75 32.0967 51.5129 32.669 51.091 33.091C50.669 33.5129 50.0967 33.75 49.5 33.75H31.5C30.9033 33.75 30.331 33.5129 29.909 33.091C29.4871 32.669 29.25 32.0967 29.25 31.5C29.25 30.9033 29.4871 30.331 29.909 29.909C30.331 29.4871 30.9033 29.25 31.5 29.25H49.5C50.0967 29.25 50.669 29.4871 51.091 29.909C51.5129 30.331 51.75 30.9033 51.75 31.5ZM49.5 38.25H31.5C30.9033 38.25 30.331 38.4871 29.909 38.909C29.4871 39.331 29.25 39.9033 29.25 40.5C29.25 41.0967 29.4871 41.669 29.909 42.091C30.331 42.5129 30.9033 42.75 31.5 42.75H49.5C50.0967 42.75 50.669 42.5129 51.091 42.091C51.5129 41.669 51.75 41.0967 51.75 40.5C51.75 39.9033 51.5129 39.331 51.091 38.909C50.669 38.4871 50.0967 38.25 49.5 38.25ZM63 13.5V58.5C63 59.6935 62.5259 60.8381 61.682 61.682C60.8381 62.5259 59.6935 63 58.5 63H13.5C12.3065 63 11.1619 62.5259 10.318 61.682C9.47411 60.8381 9 59.6935 9 58.5V13.5C9 12.3065 9.47411 11.1619 10.318 10.318C11.1619 9.47411 12.3065 9 13.5 9H58.5C59.6935 9 60.8381 9.47411 61.682 10.318C62.5259 11.1619 63 12.3065 63 13.5ZM13.5 58.5H20.25V13.5H13.5V58.5ZM58.5 58.5V13.5H24.75V58.5H58.5Z" fill="#8883F0"/>
</svg>
