<svg width="59" height="97" viewBox="0 0 59 97" fill="none" xmlns="http://www.w3.org/2000/svg">
<path fill-rule="evenodd" clip-rule="evenodd" d="M20.874 9.75275C20.5568 8.51353 20.0664 7.61684 18.9952 6.87414C17.6709 6.1803 15.8588 6.18352 14.5865 6.99339L14.2887 7.2478L13.9896 7.49243C13.2174 8.42093 12.8034 9.4105 12.7843 10.617L12.7894 11.0425C12.7852 11.5315 12.7822 12.0203 12.784 12.5094C12.7855 12.8667 12.7855 13.224 12.7842 13.5814C12.779 14.5562 12.7765 15.5309 12.7777 16.5058C12.779 17.541 12.777 18.5762 12.7737 19.6114C12.7675 21.4552 12.764 23.299 12.7636 25.1428C12.7632 26.9388 12.7617 28.7347 12.7576 30.5306L12.7568 30.8671C12.7554 31.4248 12.7541 31.9825 12.7527 32.5402C12.7416 37.0678 12.7353 41.5955 12.7331 46.1232L12.7329 46.7007C10.8029 47.6524 8.69117 49.0273 7.21905 50.6196L6.94018 50.9278C6.02659 51.8629 5.14644 52.8145 4.355 53.8568C0.551236 59.0777 -0.637708 65.3952 0.310488 71.7137L0.364688 72.0634C0.844398 75.3029 1.90545 78.462 3.49373 81.3305L3.65243 81.6135C5.1028 84.2376 6.84552 86.5023 9.02315 88.5652L9.28857 88.8152C13.2377 92.5714 17.9834 95.0969 23.3077 96.2486L23.692 96.3301C27.2811 97.1183 31.3785 97.1448 34.9779 96.395L35.2774 96.3301C35.7539 96.2304 36.2235 96.1236 36.6932 95.9955L37.1561 95.8604C40.8911 94.8065 44.4847 93.2065 47.5154 90.7477L47.9587 90.3808C49.9393 88.8664 51.6094 87.065 53.0891 85.0627L53.4383 84.5881C57.4094 79.5027 59.0245 72.8456 58.9989 66.4938C58.9972 66.1154 58.9967 65.737 58.9973 65.3587C59.0002 64.3197 59.001 63.2808 58.9985 62.2418C58.9957 61.14 58.9954 60.0383 58.9959 58.9365C58.9969 56.9699 58.9955 55.0033 58.9916 53.0366C58.9879 51.1268 58.9859 49.217 58.9874 47.3072C58.9892 45.2107 58.9901 43.1143 58.9879 41.0178L58.9872 40.3472L58.9868 40.0138C58.986 39.2426 58.9858 38.4713 58.9864 37.7001C58.9872 36.7533 58.9869 35.8064 58.9844 34.8596C58.9831 34.4707 58.982 34.0818 58.9811 33.6928C58.9823 33.1512 58.9834 32.6094 58.9811 32.0677L58.9786 31.577C58.9861 30.369 58.8908 29.5315 58.2176 28.4995C57.3891 27.5264 56.5312 26.9039 55.2375 26.7541C53.6816 26.7145 52.7018 26.9695 51.5556 28.0464C50.7349 28.9408 50.3766 29.9604 50.3607 31.1608L50.3668 31.602C50.3636 32.1087 50.3617 32.6152 50.3646 33.1218C50.3668 33.4923 50.3676 33.8628 50.3671 34.2332C50.3642 35.1388 50.3627 36.0444 50.3653 36.95C50.369 38.1329 50.3693 39.3158 50.367 40.4988C50.3631 42.4219 50.3617 44.3451 50.3632 46.2682L50.3635 46.6173L50.3641 47.3168L50.3644 47.6671L50.3647 48.0176C50.3658 49.3011 50.3664 50.5846 50.3664 51.8681L50.3664 52.2162C50.3665 54.1437 50.365 56.0712 50.3621 57.9988C50.3603 59.1848 50.3594 60.3709 50.3618 61.557C50.3636 62.3762 50.3642 63.1954 50.3634 64.0146C50.3629 64.3981 50.3625 64.7817 50.3624 65.1652C50.3747 68.079 50.337 70.9748 49.3916 73.7647L49.2112 74.2552C48.4608 76.3384 47.474 78.2123 46.1779 80.0087C42.935 84.3728 37.9 87.2861 32.5278 88.0813C26.997 88.6503 21.5093 87.5731 17.0346 84.1166L16.6469 83.8053C13.1348 81.1049 10.7843 77.4262 9.5468 73.1966L9.44513 72.8462C8.29987 69.1018 8.36463 64.6084 10.1289 61.0652L10.3258 60.6835C10.7302 59.8824 11.1869 59.1809 11.7654 58.4916L11.9797 58.2392C12.2303 57.9413 12.4812 57.6438 12.7329 57.3468C12.7416 58.7344 12.7522 60.1221 12.7656 61.5097L12.7674 61.6884L12.7674 61.6896C12.7738 62.3402 12.7803 62.9909 12.7846 63.6416C12.7887 64.3344 12.7935 65.0273 12.8008 65.7201C12.8038 65.9868 12.8067 66.2535 12.8093 66.5202C12.8172 68.5855 12.8742 70.6498 13.5933 72.6156C13.7132 72.8923 13.8327 73.1693 13.9432 73.4498C14.8011 75.6451 15.9372 77.5991 17.6669 79.2241L18.0559 79.5782C18.5622 80.0703 19.0725 80.5427 19.6215 80.9872C23.1284 83.5848 27.4537 84.679 31.7836 84.1716C36.2019 83.5234 40.0827 81.3017 42.8082 77.779L43.1054 77.3864C43.5689 76.7963 43.9891 76.1972 44.358 75.5427C46.5754 71.4177 47.0256 66.1275 45.7168 61.6125L45.6103 61.2608C44.5138 57.5116 42.6603 54.0193 39.8861 51.241C35.4241 46.898 29.7306 44.1454 23.4256 44.1734L22.8646 44.1799C22.32 44.1831 21.7754 44.1864 21.2308 44.1918L20.874 44.1958C20.8844 39.9342 20.8927 35.6727 20.8976 31.4111C20.9 29.3389 20.9025 27.2667 20.9078 25.1946C20.9125 23.3748 20.9164 21.5551 20.9178 19.7354L20.918 19.4577C20.9184 18.5887 20.9189 17.7197 20.9216 16.8507C20.9249 15.9315 20.9276 15.0123 20.9275 14.0931C20.9272 13.7536 20.9271 13.414 20.9273 13.0745C20.9299 12.6028 20.9324 12.1313 20.9317 11.6596L20.9304 11.2298C20.9357 10.7327 20.9335 10.2467 20.874 9.75275ZM33.3987 56.8772C32.3783 55.9012 31.3612 55.0395 30.1109 54.3722C27.4551 53.0711 23.8392 51.8182 20.8739 52.8066C20.8607 54.5838 20.85 56.361 20.8434 58.1382L20.8426 58.362C20.8397 59.1964 20.8369 60.0307 20.8309 60.8651C20.824 61.7525 20.8178 62.6399 20.8155 63.5273C20.8149 63.8677 20.814 64.2082 20.8128 64.5486L20.8115 64.6707C20.8009 65.6977 20.7904 66.7238 20.8402 67.75C21.0173 69.8466 21.7974 71.9342 23.3813 73.3709L23.692 73.629C25.1268 74.8595 26.6774 75.6331 28.5814 75.7169C31.2087 75.7623 33.4642 75.2099 35.4285 73.3355C37.376 71.2217 37.9172 68.9597 37.8313 66.1618C37.6687 62.8709 36.1613 59.4184 33.7198 57.1628L33.3987 56.8772Z" fill="url(#paint0_linear_3_3)"/>
<path fill-rule="evenodd" clip-rule="evenodd" d="M20.874 9.75275C20.5568 8.51353 20.0664 7.61684 18.9952 6.87414C17.6709 6.1803 15.8588 6.18352 14.5865 6.99339L14.2887 7.2478L13.9896 7.49243C13.2174 8.42093 12.8034 9.4105 12.7843 10.617L12.7894 11.0425C12.7852 11.5315 12.7822 12.0203 12.784 12.5094C12.7855 12.8667 12.7855 13.224 12.7842 13.5814C12.779 14.5562 12.7765 15.5309 12.7777 16.5058C12.779 17.541 12.777 18.5762 12.7737 19.6114C12.7675 21.4552 12.764 23.299 12.7636 25.1428C12.7632 26.9388 12.7617 28.7347 12.7576 30.5306L12.7568 30.8671C12.7554 31.4248 12.7541 31.9825 12.7527 32.5402C12.7416 37.0678 12.7353 41.5955 12.7331 46.1232L12.7329 46.7007C10.8029 47.6524 8.69117 49.0273 7.21905 50.6196L6.94018 50.9278C6.02659 51.8629 5.14644 52.8145 4.355 53.8568C0.551236 59.0777 -0.637708 65.3952 0.310488 71.7137L0.364688 72.0634C0.844398 75.3029 1.90545 78.462 3.49373 81.3305L3.65243 81.6135C5.1028 84.2376 6.84552 86.5023 9.02315 88.5652L9.28857 88.8152C13.2377 92.5714 17.9834 95.0969 23.3077 96.2486L23.692 96.3301C27.2811 97.1183 31.3785 97.1448 34.9779 96.395L35.2774 96.3301C35.7539 96.2304 36.2235 96.1236 36.6932 95.9955L37.1561 95.8604C40.8911 94.8065 44.4847 93.2065 47.5154 90.7477L47.9587 90.3808C49.9393 88.8664 51.6094 87.065 53.0891 85.0627L53.4383 84.5881C57.4094 79.5027 59.0245 72.8456 58.9989 66.4938C58.9972 66.1154 58.9967 65.737 58.9973 65.3587C59.0002 64.3197 59.001 63.2808 58.9985 62.2418C58.9957 61.14 58.9954 60.0383 58.9959 58.9365C58.9969 56.9699 58.9955 55.0033 58.9916 53.0366C58.9879 51.1268 58.9859 49.217 58.9874 47.3072C58.9892 45.2107 58.9901 43.1143 58.9879 41.0178L58.9872 40.3472L58.9868 40.0138C58.986 39.2426 58.9858 38.4713 58.9864 37.7001C58.9872 36.7533 58.9869 35.8064 58.9844 34.8596C58.9831 34.4707 58.982 34.0818 58.9811 33.6928C58.9823 33.1512 58.9834 32.6094 58.9811 32.0677L58.9786 31.577C58.9861 30.369 58.8908 29.5315 58.2176 28.4995C57.3891 27.5264 56.5312 26.9039 55.2375 26.7541C53.6816 26.7145 52.7018 26.9695 51.5556 28.0464C50.7349 28.9408 50.3766 29.9604 50.3607 31.1608L50.3668 31.602C50.3636 32.1087 50.3617 32.6152 50.3646 33.1218C50.3668 33.4923 50.3676 33.8628 50.3671 34.2332C50.3642 35.1388 50.3627 36.0444 50.3653 36.95C50.369 38.1329 50.3693 39.3158 50.367 40.4988C50.3631 42.4219 50.3617 44.3451 50.3632 46.2682L50.3635 46.6173L50.3641 47.3168L50.3644 47.6671L50.3647 48.0176C50.3658 49.3011 50.3664 50.5846 50.3664 51.8681L50.3664 52.2162C50.3665 54.1437 50.365 56.0712 50.3621 57.9988C50.3603 59.1848 50.3594 60.3709 50.3618 61.557C50.3636 62.3762 50.3642 63.1954 50.3634 64.0146C50.3629 64.3981 50.3625 64.7817 50.3624 65.1652C50.3747 68.079 50.337 70.9748 49.3916 73.7647L49.2112 74.2552C48.4608 76.3384 47.474 78.2123 46.1779 80.0087C42.935 84.3728 37.9 87.2861 32.5278 88.0813C26.997 88.6503 21.5093 87.5731 17.0346 84.1166L16.6469 83.8053C13.1348 81.1049 10.7843 77.4262 9.5468 73.1966L9.44513 72.8462C8.29987 69.1018 8.36463 64.6084 10.1289 61.0652L10.3258 60.6835C10.7302 59.8824 11.1869 59.1809 11.7654 58.4916L11.9797 58.2392C12.2303 57.9413 12.4812 57.6438 12.7329 57.3468C12.7416 58.7344 12.7522 60.1221 12.7656 61.5097L12.7674 61.6884L12.7674 61.6896C12.7738 62.3402 12.7803 62.9909 12.7846 63.6416C12.7887 64.3344 12.7935 65.0273 12.8008 65.7201C12.8038 65.9868 12.8067 66.2535 12.8093 66.5202C12.8172 68.5855 12.8742 70.6498 13.5933 72.6156C13.7132 72.8923 13.8327 73.1693 13.9432 73.4498C14.8011 75.6451 15.9372 77.5991 17.6669 79.2241L18.0559 79.5782C18.5622 80.0703 19.0725 80.5427 19.6215 80.9872C23.1284 83.5848 27.4537 84.679 31.7836 84.1716C36.2019 83.5234 40.0827 81.3017 42.8082 77.779L43.1054 77.3864C43.5689 76.7963 43.9891 76.1972 44.358 75.5427C46.5754 71.4177 47.0256 66.1275 45.7168 61.6125L45.6103 61.2608C44.5138 57.5116 42.6603 54.0193 39.8861 51.241C35.4241 46.898 29.7306 44.1454 23.4256 44.1734L22.8646 44.1799C22.32 44.1831 21.7754 44.1864 21.2308 44.1918L20.874 44.1958C20.8844 39.9342 20.8927 35.6727 20.8976 31.4111C20.9 29.3389 20.9025 27.2667 20.9078 25.1946C20.9125 23.3748 20.9164 21.5551 20.9178 19.7354L20.918 19.4577C20.9184 18.5887 20.9189 17.7197 20.9216 16.8507C20.9249 15.9315 20.9276 15.0123 20.9275 14.0931C20.9272 13.7536 20.9271 13.414 20.9273 13.0745C20.9299 12.6028 20.9324 12.1313 20.9317 11.6596L20.9304 11.2298C20.9357 10.7327 20.9335 10.2467 20.874 9.75275ZM33.3987 56.8772C32.3783 55.9012 31.3612 55.0395 30.1109 54.3722C27.4551 53.0711 23.8392 51.8182 20.8739 52.8066C20.8607 54.5838 20.85 56.361 20.8434 58.1382L20.8426 58.362C20.8397 59.1964 20.8369 60.0307 20.8309 60.8651C20.824 61.7525 20.8178 62.6399 20.8155 63.5273C20.8149 63.8677 20.814 64.2082 20.8128 64.5486L20.8115 64.6707C20.8009 65.6977 20.7904 66.7238 20.8402 67.75C21.0173 69.8466 21.7974 71.9342 23.3813 73.3709L23.692 73.629C25.1268 74.8595 26.6774 75.6331 28.5814 75.7169C31.2087 75.7623 33.4642 75.2099 35.4285 73.3355C37.376 71.2217 37.9172 68.9597 37.8313 66.1618C37.6687 62.8709 36.1613 59.4184 33.7198 57.1628L33.3987 56.8772Z" fill="url(#paint1_linear_3_3)"/>
<path d="M32.1358 0.868027C33.0433 1.55495 33.6138 2.52235 33.7825 3.64966C33.8088 4.18718 33.8105 4.71942 33.8032 5.25754C33.8035 5.46102 33.8039 5.66451 33.8043 5.87416C33.8051 6.43101 33.8012 6.98773 33.7963 7.54455C33.792 8.13724 33.7922 8.72993 33.7918 9.32263C33.7903 10.4607 33.7847 11.5988 33.7775 12.7369C33.7718 13.6493 33.7677 14.5616 33.7647 15.474C33.7643 15.603 33.7639 15.7319 33.7635 15.8647C33.7626 16.125 33.7618 16.3853 33.761 16.6455C33.7531 19.0513 33.7401 21.457 33.7244 23.8627C33.7153 25.2562 33.708 26.6496 33.7031 28.0431C33.6982 29.4338 33.6905 30.8243 33.6784 32.2149C33.6744 32.6767 33.6715 33.1385 33.6697 33.6004C33.667 34.2177 33.6592 34.835 33.6507 35.4523C33.6505 35.6222 33.6503 35.792 33.6501 35.967C33.6237 37.3038 33.3381 38.4648 32.43 39.4795C31.2688 40.5135 30.1691 40.702 28.6279 40.6543C27.4787 40.5308 26.8009 40.0112 25.9841 39.2281C25.0505 37.9366 25.0146 36.7015 25.0344 35.1472C25.0351 34.9078 25.0355 34.6685 25.0357 34.4291C25.037 33.7671 25.0423 33.1052 25.0485 32.4432C25.0547 31.7312 25.0579 31.0191 25.0615 30.307C25.0667 29.3568 25.0724 28.4065 25.0798 27.4563C25.0967 25.2463 25.1037 23.0365 25.1042 20.8265C25.1047 18.9366 25.1087 17.0469 25.1149 15.1571C25.1187 13.977 25.121 12.797 25.1196 11.6169C25.1185 10.5988 25.1208 9.58069 25.127 8.56256C25.1302 8.03612 25.1313 7.50989 25.1293 6.98344C25.1274 6.40464 25.1313 5.82614 25.1366 5.24737C25.1347 5.0803 25.1328 4.91323 25.1308 4.74109C25.1535 3.36091 25.5633 2.08897 26.5578 1.09417C28.2744 -0.328626 30.2968 -0.320869 32.1358 0.868027Z" fill="url(#paint2_linear_3_3)"/>
<path d="M43.9567 6.76834C45.0748 7.42542 45.8981 8.33961 46.2366 9.59619C46.2801 10.0577 46.2795 10.5164 46.2774 10.9797C46.2783 11.1859 46.2783 11.1859 46.2792 11.3963C46.2808 11.856 46.2802 12.3156 46.2796 12.7753C46.2803 13.1053 46.2811 13.4353 46.282 13.7653C46.2841 14.661 46.2842 15.5566 46.2838 16.4523C46.2836 17.2001 46.2844 17.9479 46.2851 18.6957C46.2869 20.4598 46.2869 22.2239 46.286 23.9881C46.285 25.808 46.287 27.6278 46.2903 29.4477C46.2931 31.0104 46.294 32.5731 46.2935 34.1358C46.2932 35.0691 46.2936 36.0023 46.2958 36.9355C46.2978 37.8131 46.2975 38.6906 46.2954 39.5682C46.295 39.8901 46.2955 40.212 46.2968 40.534C46.2984 40.9737 46.2971 41.4134 46.2952 41.8531C46.2963 41.9802 46.2975 42.1074 46.2987 42.2384C46.2864 43.5284 45.8274 44.3775 44.9584 45.3235C44.0647 46.1983 43.2848 46.4106 42.0486 46.4268C40.5427 46.4081 39.7827 46.1163 38.6997 45.0758C37.5619 43.4719 37.6931 41.753 37.7013 39.869C37.7005 39.541 37.6994 39.2129 37.698 38.8849C37.6952 37.9973 37.6963 37.1098 37.6982 36.2222C37.6998 35.2918 37.6984 34.3614 37.6974 33.431C37.6962 31.8689 37.6977 30.3069 37.7007 28.7449C37.7041 26.9406 37.703 25.1364 37.6996 23.3321C37.6967 21.781 37.6963 20.2298 37.698 18.6787C37.6989 17.7531 37.6991 16.8276 37.697 15.9021C37.6952 15.0319 37.6965 14.1619 37.7001 13.2918C37.7009 12.973 37.7007 12.6542 37.6993 12.3354C37.6976 11.8992 37.6997 11.4632 37.7028 11.027C37.7014 10.9018 37.7 10.7767 37.6986 10.6477C37.7132 9.58517 38.0423 8.69385 38.6655 7.83184C40.1421 6.41611 41.9806 5.88872 43.9567 6.76834Z" fill="url(#paint3_linear_3_3)"/>
<path d="M6.91816 16.9643C7.72655 17.5643 8.1939 18.5239 8.50577 19.4595C8.5214 19.776 8.52758 20.093 8.52881 20.4099C8.52993 20.6087 8.53105 20.8076 8.5322 21.0124C8.53265 21.2333 8.53307 21.4541 8.53348 21.6749C8.53446 21.9072 8.5355 22.1394 8.5366 22.3716C8.53989 23.1349 8.54151 23.8981 8.54307 24.6614C8.54371 24.9244 8.54435 25.1874 8.54501 25.4503C8.54799 26.6863 8.55022 27.9222 8.55152 29.1581C8.55305 30.5833 8.55717 32.0085 8.5635 33.4337C8.56822 34.5361 8.57054 35.6384 8.57106 36.7408C8.57142 37.3988 8.57282 38.0568 8.57676 38.7148C8.58042 39.3344 8.58107 39.954 8.57946 40.5737C8.57939 40.8003 8.58037 41.0269 8.58253 41.2535C8.59786 42.9611 8.38166 44.2395 7.20865 45.526C6.23924 46.3761 5.09661 46.612 3.84079 46.5968C2.58119 46.4647 1.71022 45.8042 0.908358 44.8624C0.111666 43.641 0.139938 42.5405 0.144863 41.1121C0.14397 40.8783 0.142879 40.6444 0.141607 40.4105C0.138805 39.7775 0.138982 39.1445 0.139876 38.5114C0.140361 37.9819 0.139405 37.4524 0.138461 36.9229C0.136264 35.6732 0.136505 34.4234 0.138289 33.1737C0.140086 31.8868 0.137884 30.5999 0.133687 29.3129C0.130212 28.2059 0.12918 27.0988 0.130098 25.9918C0.130625 25.3315 0.130255 24.6713 0.127554 24.0111C0.125123 23.3898 0.12576 22.7687 0.128697 22.1475C0.129272 21.9204 0.128794 21.6932 0.12715 21.4661C0.116983 19.9455 0.293898 18.8997 1.10834 17.6199C2.80622 15.922 4.87375 15.7961 6.91816 16.9643Z" fill="url(#paint4_linear_3_3)"/>
<defs>
<linearGradient id="paint0_linear_3_3" x1="29.5" y1="0" x2="29.5" y2="96.9398" gradientUnits="userSpaceOnUse">
<stop stop-color="#FF7B77"/>
<stop offset="0.9" stop-color="#EBA8EF"/>
<stop offset="1" stop-color="#8883F0"/>
</linearGradient>
<linearGradient id="paint1_linear_3_3" x1="29.5" y1="0" x2="29.5" y2="96.9398" gradientUnits="userSpaceOnUse">
<stop stop-color="#FF7571"/>
<stop offset="0.81" stop-color="#D274D8"/>
<stop offset="1" stop-color="#8883F0"/>
</linearGradient>
<linearGradient id="paint2_linear_3_3" x1="29.5" y1="0" x2="29.5" y2="96.9398" gradientUnits="userSpaceOnUse">
<stop stop-color="#FF7571"/>
<stop offset="0.81" stop-color="#D274D8"/>
<stop offset="1" stop-color="#8883F0"/>
</linearGradient>
<linearGradient id="paint3_linear_3_3" x1="29.5" y1="0" x2="29.5" y2="96.9398" gradientUnits="userSpaceOnUse">
<stop stop-color="#FF7571"/>
<stop offset="0.81" stop-color="#D274D8"/>
<stop offset="1" stop-color="#8883F0"/>
</linearGradient>
<linearGradient id="paint4_linear_3_3" x1="29.5" y1="0" x2="29.5" y2="96.9398" gradientUnits="userSpaceOnUse">
<stop stop-color="#FF7571"/>
<stop offset="0.81" stop-color="#D274D8"/>
<stop offset="1" stop-color="#8883F0"/>
</linearGradient>
</defs>
</svg>
