<svg width="72" height="72" viewBox="0 0 72 72" fill="none" xmlns="http://www.w3.org/2000/svg">
<path d="M56.25 13.5H38.25V4.5C38.25 3.90326 38.0129 3.33097 37.591 2.90901C37.169 2.48705 36.5967 2.25 36 2.25C35.4033 2.25 34.831 2.48705 34.409 2.90901C33.9871 3.33097 33.75 3.90326 33.75 4.5V13.5H15.75C13.3631 13.5 11.0739 14.4482 9.38604 16.136C7.69821 17.8239 6.75 20.1131 6.75 22.5V54C6.75 56.3869 7.69821 58.6761 9.38604 60.364C11.0739 62.0518 13.3631 63 15.75 63H56.25C58.6369 63 60.9261 62.0518 62.614 60.364C64.3018 58.6761 65.25 56.3869 65.25 54V22.5C65.25 20.1131 64.3018 17.8239 62.614 16.136C60.9261 14.4482 58.6369 13.5 56.25 13.5ZM60.75 54C60.75 55.1935 60.2759 56.3381 59.432 57.182C58.5881 58.0259 57.4435 58.5 56.25 58.5H15.75C14.5565 58.5 13.4119 58.0259 12.568 57.182C11.7241 56.3381 11.25 55.1935 11.25 54V22.5C11.25 21.3065 11.7241 20.1619 12.568 19.318C13.4119 18.4741 14.5565 18 15.75 18H56.25C57.4435 18 58.5881 18.4741 59.432 19.318C60.2759 20.1619 60.75 21.3065 60.75 22.5V54ZM46.125 38.25H25.875C23.7864 38.25 21.7834 39.0797 20.3065 40.5565C18.8297 42.0334 18 44.0364 18 46.125C18 48.2136 18.8297 50.2166 20.3065 51.6935C21.7834 53.1703 23.7864 54 25.875 54H46.125C48.2136 54 50.2166 53.1703 51.6935 51.6935C53.1703 50.2166 54 48.2136 54 46.125C54 44.0364 53.1703 42.0334 51.6935 40.5565C50.2166 39.0797 48.2136 38.25 46.125 38.25ZM38.25 42.75V49.5H33.75V42.75H38.25ZM22.5 46.125C22.5 45.2299 22.8556 44.3715 23.4885 43.7385C24.1214 43.1056 24.9799 42.75 25.875 42.75H29.25V49.5H25.875C24.9799 49.5 24.1214 49.1444 23.4885 48.5115C22.8556 47.8785 22.5 47.0201 22.5 46.125ZM46.125 49.5H42.75V42.75H46.125C47.0201 42.75 47.8785 43.1056 48.5115 43.7385C49.1444 44.3715 49.5 45.2299 49.5 46.125C49.5 47.0201 49.1444 47.8785 48.5115 48.5115C47.8785 49.1444 47.0201 49.5 46.125 49.5ZM20.25 30.375C20.25 29.7075 20.4479 29.055 20.8188 28.5C21.1896 27.9449 21.7167 27.5124 22.3334 27.2569C22.9501 27.0015 23.6287 26.9346 24.2834 27.0648C24.9381 27.1951 25.5395 27.5165 26.0115 27.9885C26.4835 28.4605 26.8049 29.0619 26.9352 29.7166C27.0654 30.3713 26.9985 31.0499 26.7431 31.6666C26.4876 32.2833 26.0551 32.8104 25.5 33.1812C24.945 33.5521 24.2925 33.75 23.625 33.75C22.7299 33.75 21.8714 33.3944 21.2385 32.7615C20.6056 32.1286 20.25 31.2701 20.25 30.375ZM45 30.375C45 29.7075 45.1979 29.055 45.5688 28.5C45.9396 27.9449 46.4667 27.5124 47.0834 27.2569C47.7001 27.0015 48.3787 26.9346 49.0334 27.0648C49.6881 27.1951 50.2895 27.5165 50.7615 27.9885C51.2335 28.4605 51.5549 29.0619 51.6852 29.7166C51.8154 30.3713 51.7485 31.0499 51.4931 31.6666C51.2376 32.2833 50.8051 32.8104 50.25 33.1812C49.695 33.5521 49.0425 33.75 48.375 33.75C47.4799 33.75 46.6215 33.3944 45.9885 32.7615C45.3556 32.1286 45 31.2701 45 30.375Z" fill="#8883F0"/>
</svg>
