<svg width="68" height="68" viewBox="0 0 68 68" fill="none" xmlns="http://www.w3.org/2000/svg">
<path d="M66.8764 19.3906C66.5375 19.209 66.1557 19.1227 65.7717 19.1409C65.3877 19.1592 65.0158 19.2813 64.6956 19.4942L55.25 25.7789V19.125C55.25 17.9978 54.8022 16.9168 54.0052 16.1198C53.2082 15.3228 52.1272 14.875 51 14.875H8.5C7.37283 14.875 6.29183 15.3228 5.4948 16.1198C4.69777 16.9168 4.25 17.9978 4.25 19.125V48.875C4.25 50.0022 4.69777 51.0832 5.4948 51.8802C6.29183 52.6772 7.37283 53.125 8.5 53.125H51C52.1272 53.125 53.2082 52.6772 54.0052 51.8802C54.8022 51.0832 55.25 50.0022 55.25 48.875V42.2344L64.6956 48.5323C65.0465 48.7602 65.4567 48.8794 65.875 48.875C66.4386 48.875 66.9791 48.6511 67.3776 48.2526C67.7761 47.8541 68 47.3136 68 46.75V21.25C67.9973 20.8677 67.8915 20.4931 67.6938 20.1659C67.496 19.8386 67.2136 19.5708 66.8764 19.3906ZM51 48.875H8.5V19.125H51V48.875ZM63.75 42.7789L55.25 37.1131V30.8869L63.75 25.2344V42.7789Z" fill="#8883F0"/>
</svg>
